<svg width="313" height="192" viewBox="0 0 313 192" fill="none" xmlns="http://www.w3.org/2000/svg">
<path d="M57.472 21.08H47.68V47H38.32V21.08H28.48V12.92H57.472V21.08ZM76.7838 29.528C75.0238 29.528 73.4238 29.72 71.9838 30.104C70.5438 30.488 69.4718 31.128 68.7678 32.024V47H59.6478V21.752H67.9998V26.552C68.8958 24.856 70.0158 23.56 71.3598 22.664C72.7038 21.736 74.1278 21.272 75.6318 21.272C75.9838 21.272 76.2238 21.272 76.3518 21.272C76.5118 21.272 76.6558 21.288 76.7838 21.32V29.528ZM77.9433 39.368C77.9433 37.672 78.4073 36.184 79.3353 34.904C80.2633 33.592 81.5433 32.568 83.1753 31.832C84.8393 31.096 86.7273 30.728 88.8393 30.728C89.8313 30.728 90.7593 30.808 91.6233 30.968C92.5193 31.128 93.2873 31.368 93.9273 31.688V30.92C93.9273 29.736 93.5753 28.856 92.8713 28.28C92.1993 27.704 91.0953 27.416 89.5593 27.416C88.1513 27.416 86.8233 27.656 85.5753 28.136C84.3593 28.584 83.0793 29.256 81.7353 30.152L79.0953 24.488C80.7913 23.4 82.5673 22.6 84.4233 22.088C86.3113 21.544 88.3273 21.272 90.4713 21.272C94.4713 21.272 97.5593 22.184 99.7353 24.008C101.943 25.8 103.047 28.472 103.047 32.024V36.92C103.047 37.784 103.175 38.392 103.431 38.744C103.687 39.064 104.135 39.256 104.775 39.32V47C104.039 47.16 103.335 47.272 102.663 47.336C102.023 47.432 101.447 47.48 100.935 47.48C99.3033 47.48 98.0553 47.192 97.1913 46.616C96.3593 46.008 95.8153 45.128 95.5593 43.976L95.3673 43.064C94.2473 44.504 92.9513 45.608 91.4793 46.376C90.0073 47.112 88.4393 47.48 86.7753 47.48C85.1113 47.48 83.6073 47.128 82.2633 46.424C80.9193 45.72 79.8633 44.76 79.0953 43.544C78.3273 42.296 77.9433 40.904 77.9433 39.368ZM92.7273 39.992C93.0793 39.736 93.3673 39.464 93.5913 39.176C93.8153 38.856 93.9273 38.536 93.9273 38.216V36.344C93.4153 36.152 92.8233 35.992 92.1513 35.864C91.5113 35.736 90.9353 35.672 90.4233 35.672C89.3353 35.672 88.4073 35.944 87.6393 36.488C86.9033 37.032 86.5353 37.72 86.5353 38.552C86.5353 39 86.6633 39.416 86.9193 39.8C87.1753 40.152 87.5273 40.44 87.9753 40.664C88.4233 40.856 88.9353 40.952 89.5113 40.952C90.0553 40.952 90.6153 40.872 91.1913 40.712C91.7993 40.52 92.3113 40.28 92.7273 39.992ZM120.55 47.48C118.31 47.48 116.326 47.128 114.598 46.424C112.902 45.72 111.462 44.76 110.278 43.544C109.094 42.296 108.198 40.888 107.59 39.32C106.982 37.752 106.678 36.104 106.678 34.376C106.678 32.072 107.206 29.928 108.262 27.944C109.35 25.928 110.918 24.312 112.966 23.096C115.046 21.88 117.574 21.272 120.55 21.272C123.59 21.272 126.15 21.912 128.23 23.192C130.31 24.472 131.862 26.12 132.886 28.136L124.006 30.824C123.59 30.216 123.078 29.752 122.47 29.432C121.894 29.112 121.238 28.952 120.502 28.952C119.67 28.952 118.918 29.176 118.246 29.624C117.574 30.04 117.03 30.648 116.614 31.448C116.23 32.248 116.038 33.224 116.038 34.376C116.038 35.496 116.23 36.472 116.614 37.304C117.03 38.104 117.574 38.728 118.246 39.176C118.918 39.592 119.67 39.8 120.502 39.8C121.014 39.8 121.478 39.736 121.894 39.608C122.31 39.448 122.694 39.224 123.046 38.936C123.43 38.648 123.75 38.312 124.006 37.928L132.886 40.616C132.214 41.96 131.286 43.144 130.102 44.168C128.95 45.192 127.574 46.008 125.974 46.616C124.406 47.192 122.598 47.48 120.55 47.48ZM147.97 47.48C145.762 47.48 143.794 47.144 142.066 46.472C140.338 45.768 138.882 44.824 137.698 43.64C136.546 42.456 135.666 41.096 135.058 39.56C134.45 38.024 134.146 36.408 134.146 34.712C134.146 32.28 134.674 30.056 135.73 28.04C136.786 25.992 138.338 24.36 140.386 23.144C142.434 21.896 144.962 21.272 147.97 21.272C150.978 21.272 153.506 21.88 155.554 23.096C157.602 24.312 159.154 25.912 160.21 27.896C161.266 29.88 161.794 32.04 161.794 34.376C161.794 34.856 161.762 35.352 161.698 35.864C161.666 36.344 161.618 36.776 161.554 37.16H143.842C143.906 38.056 144.146 38.792 144.562 39.368C145.01 39.912 145.554 40.312 146.194 40.568C146.866 40.824 147.554 40.952 148.258 40.952C149.25 40.952 150.178 40.728 151.042 40.28C151.938 39.832 152.53 39.208 152.818 38.408L160.546 40.616C159.874 41.96 158.93 43.144 157.714 44.168C156.53 45.192 155.122 46.008 153.49 46.616C151.858 47.192 150.018 47.48 147.97 47.48ZM143.65 31.688H152.002C151.906 30.856 151.666 30.152 151.282 29.576C150.93 29 150.45 28.552 149.842 28.232C149.266 27.912 148.594 27.752 147.826 27.752C147.058 27.752 146.37 27.912 145.762 28.232C145.186 28.552 144.706 29 144.322 29.576C143.97 30.152 143.746 30.856 143.65 31.688ZM98.341 98.84V107H74.053V72.92H97.909V81.08H83.413V85.88H95.797V93.464H83.413V98.84H98.341ZM108.31 107L99.8136 81.752H109.174L113.686 98.888L118.246 81.752H126.742L118.246 107H108.31ZM140.705 107.48C138.497 107.48 136.529 107.144 134.801 106.472C133.073 105.768 131.617 104.824 130.433 103.64C129.281 102.456 128.401 101.096 127.793 99.56C127.185 98.024 126.881 96.408 126.881 94.712C126.881 92.28 127.409 90.056 128.465 88.04C129.521 85.992 131.073 84.36 133.121 83.144C135.169 81.896 137.697 81.272 140.705 81.272C143.713 81.272 146.241 81.88 148.289 83.096C150.337 84.312 151.889 85.912 152.945 87.896C154.001 89.88 154.529 92.04 154.529 94.376C154.529 94.856 154.497 95.352 154.433 95.864C154.401 96.344 154.353 96.776 154.289 97.16H136.577C136.641 98.056 136.881 98.792 137.297 99.368C137.745 99.912 138.289 100.312 138.929 100.568C139.601 100.824 140.289 100.952 140.993 100.952C141.985 100.952 142.913 100.728 143.777 100.28C144.673 99.832 145.265 99.208 145.553 98.408L153.281 100.616C152.609 101.96 151.665 103.144 150.449 104.168C149.265 105.192 147.857 106.008 146.225 106.616C144.593 107.192 142.753 107.48 140.705 107.48ZM136.385 91.688H144.737C144.641 90.856 144.401 90.152 144.017 89.576C143.665 89 143.185 88.552 142.577 88.232C142.001 87.912 141.329 87.752 140.561 87.752C139.793 87.752 139.105 87.912 138.497 88.232C137.921 88.552 137.441 89 137.057 89.576C136.705 90.152 136.481 90.856 136.385 91.688ZM182.915 107H173.795V92.792C173.795 91.544 173.507 90.648 172.931 90.104C172.387 89.528 171.747 89.24 171.011 89.24C170.499 89.24 169.955 89.4 169.379 89.72C168.803 90.008 168.275 90.424 167.795 90.968C167.315 91.512 166.931 92.136 166.643 92.84V107H157.523V81.752H165.731V85.496C166.339 84.568 167.107 83.8 168.035 83.192C168.963 82.552 170.035 82.072 171.251 81.752C172.467 81.432 173.795 81.272 175.235 81.272C176.963 81.272 178.339 81.576 179.363 82.184C180.387 82.792 181.155 83.576 181.667 84.536C182.179 85.496 182.515 86.504 182.675 87.56C182.835 88.584 182.915 89.528 182.915 90.392V107ZM205.047 105.608C204.215 105.96 203.319 106.296 202.359 106.616C201.431 106.904 200.471 107.128 199.479 107.288C198.519 107.448 197.575 107.528 196.647 107.528C195.271 107.528 194.007 107.304 192.855 106.856C191.703 106.376 190.775 105.608 190.071 104.552C189.399 103.464 189.063 102.008 189.063 100.184V88.616H185.943V81.752H189.063V73.832H198.183V81.752H203.127V88.616H198.183V96.968C198.183 97.8 198.359 98.392 198.711 98.744C199.063 99.064 199.543 99.224 200.151 99.224C200.599 99.224 201.111 99.144 201.687 98.984C202.263 98.824 202.839 98.632 203.415 98.408L205.047 105.608ZM117.178 167V132.92H126.538V158.84H141.994V167H117.178ZM157.064 167.48C154.824 167.48 152.84 167.128 151.112 166.424C149.384 165.72 147.928 164.76 146.744 163.544C145.592 162.296 144.712 160.888 144.104 159.32C143.528 157.752 143.24 156.104 143.24 154.376C143.24 152.648 143.528 151 144.104 149.432C144.712 147.832 145.592 146.424 146.744 145.208C147.928 143.992 149.384 143.032 151.112 142.328C152.84 141.624 154.824 141.272 157.064 141.272C159.336 141.272 161.32 141.624 163.016 142.328C164.744 143.032 166.184 143.992 167.336 145.208C168.52 146.424 169.4 147.832 169.976 149.432C170.584 151 170.888 152.648 170.888 154.376C170.888 156.104 170.584 157.752 169.976 159.32C169.4 160.888 168.52 162.296 167.336 163.544C166.184 164.76 164.744 165.72 163.016 166.424C161.32 167.128 159.336 167.48 157.064 167.48ZM152.6 154.376C152.6 155.496 152.792 156.472 153.176 157.304C153.56 158.104 154.088 158.728 154.76 159.176C155.432 159.592 156.2 159.8 157.064 159.8C157.928 159.8 158.696 159.592 159.368 159.176C160.04 158.728 160.568 158.104 160.952 157.304C161.336 156.472 161.528 155.496 161.528 154.376C161.528 153.256 161.336 152.296 160.952 151.496C160.568 150.664 160.04 150.04 159.368 149.624C158.696 149.176 157.928 148.952 157.064 148.952C156.2 148.952 155.432 149.176 154.76 149.624C154.088 150.04 153.56 150.664 153.176 151.496C152.792 152.296 152.6 153.256 152.6 154.376ZM183.812 167C182.181 167 180.677 166.68 179.301 166.04C177.957 165.4 176.805 164.504 175.845 163.352C174.885 162.2 174.133 160.856 173.589 159.32C173.077 157.784 172.821 156.12 172.821 154.328C172.821 152.44 173.109 150.712 173.685 149.144C174.261 147.544 175.061 146.152 176.085 144.968C177.141 143.784 178.389 142.872 179.829 142.232C181.269 141.592 182.853 141.272 184.581 141.272C186.373 141.272 187.957 141.64 189.333 142.376C190.741 143.08 191.845 144.12 192.645 145.496V141.752H200.565V164.696C200.565 167.32 199.925 169.608 198.645 171.56C197.365 173.512 195.573 175.016 193.269 176.072C190.965 177.16 188.277 177.704 185.205 177.704C182.549 177.704 180.213 177.288 178.197 176.456C176.213 175.624 174.453 174.424 172.917 172.856L177.717 167.864C178.645 168.728 179.749 169.448 181.029 170.024C182.341 170.632 183.733 170.936 185.205 170.936C186.325 170.936 187.349 170.728 188.277 170.312C189.237 169.896 190.005 169.224 190.581 168.296C191.157 167.4 191.445 166.2 191.445 164.696V163.064C190.741 164.376 189.685 165.368 188.277 166.04C186.901 166.68 185.413 167 183.812 167ZM187.077 159.8C187.525 159.8 187.941 159.752 188.325 159.656C188.741 159.528 189.125 159.368 189.477 159.176C189.829 158.952 190.165 158.68 190.485 158.36C190.837 158.008 191.157 157.624 191.445 157.208V152.696C191.157 151.928 190.757 151.272 190.245 150.728C189.733 150.152 189.173 149.72 188.565 149.432C187.957 149.112 187.333 148.952 186.693 148.952C186.053 148.952 185.445 149.096 184.869 149.384C184.325 149.672 183.845 150.088 183.429 150.632C183.013 151.144 182.693 151.736 182.469 152.408C182.245 153.08 182.133 153.8 182.133 154.568C182.133 155.336 182.245 156.04 182.469 156.68C182.725 157.32 183.077 157.88 183.525 158.36C183.973 158.808 184.501 159.16 185.109 159.416C185.717 159.672 186.373 159.8 187.077 159.8ZM214.891 167C213.259 167 211.755 166.68 210.379 166.04C209.035 165.4 207.883 164.504 206.923 163.352C205.963 162.2 205.211 160.856 204.667 159.32C204.155 157.784 203.899 156.12 203.899 154.328C203.899 152.44 204.187 150.712 204.763 149.144C205.339 147.544 206.139 146.152 207.163 144.968C208.219 143.784 209.467 142.872 210.907 142.232C212.347 141.592 213.931 141.272 215.659 141.272C217.451 141.272 219.035 141.64 220.411 142.376C221.819 143.08 222.923 144.12 223.723 145.496V141.752H231.643V164.696C231.643 167.32 231.003 169.608 229.723 171.56C228.443 173.512 226.651 175.016 224.347 176.072C222.043 177.16 219.355 177.704 216.283 177.704C213.627 177.704 211.291 177.288 209.275 176.456C207.291 175.624 205.531 174.424 203.995 172.856L208.795 167.864C209.723 168.728 210.827 169.448 212.107 170.024C213.419 170.632 214.811 170.936 216.283 170.936C217.403 170.936 218.427 170.728 219.355 170.312C220.315 169.896 221.083 169.224 221.659 168.296C222.235 167.4 222.523 166.2 222.523 164.696V163.064C221.819 164.376 220.763 165.368 219.355 166.04C217.979 166.68 216.491 167 214.891 167ZM218.155 159.8C218.603 159.8 219.019 159.752 219.403 159.656C219.819 159.528 220.203 159.368 220.555 159.176C220.907 158.952 221.243 158.68 221.563 158.36C221.915 158.008 222.235 157.624 222.523 157.208V152.696C222.235 151.928 221.835 151.272 221.323 150.728C220.811 150.152 220.251 149.72 219.643 149.432C219.035 149.112 218.411 148.952 217.771 148.952C217.131 148.952 216.523 149.096 215.947 149.384C215.403 149.672 214.923 150.088 214.507 150.632C214.091 151.144 213.771 151.736 213.547 152.408C213.323 153.08 213.211 153.8 213.211 154.568C213.211 155.336 213.323 156.04 213.547 156.68C213.803 157.32 214.155 157.88 214.603 158.36C215.051 158.808 215.579 159.16 216.187 159.416C216.795 159.672 217.451 159.8 218.155 159.8ZM248.705 167.48C246.497 167.48 244.529 167.144 242.801 166.472C241.073 165.768 239.617 164.824 238.433 163.64C237.281 162.456 236.401 161.096 235.793 159.56C235.185 158.024 234.881 156.408 234.881 154.712C234.881 152.28 235.409 150.056 236.465 148.04C237.521 145.992 239.073 144.36 241.121 143.144C243.169 141.896 245.697 141.272 248.705 141.272C251.713 141.272 254.241 141.88 256.289 143.096C258.337 144.312 259.889 145.912 260.945 147.896C262.001 149.88 262.529 152.04 262.529 154.376C262.529 154.856 262.497 155.352 262.433 155.864C262.401 156.344 262.353 156.776 262.289 157.16H244.577C244.641 158.056 244.881 158.792 245.297 159.368C245.745 159.912 246.289 160.312 246.929 160.568C247.601 160.824 248.289 160.952 248.993 160.952C249.985 160.952 250.913 160.728 251.777 160.28C252.673 159.832 253.265 159.208 253.553 158.408L261.281 160.616C260.609 161.96 259.665 163.144 258.449 164.168C257.265 165.192 255.857 166.008 254.225 166.616C252.593 167.192 250.753 167.48 248.705 167.48ZM244.385 151.688H252.737C252.641 150.856 252.401 150.152 252.017 149.576C251.665 149 251.185 148.552 250.577 148.232C250.001 147.912 249.329 147.752 248.561 147.752C247.793 147.752 247.105 147.912 246.497 148.232C245.921 148.552 245.441 149 245.057 149.576C244.705 150.152 244.481 150.856 244.385 151.688ZM282.659 149.528C280.899 149.528 279.299 149.72 277.859 150.104C276.419 150.488 275.347 151.128 274.643 152.024V167H265.523V141.752H273.875V146.552C274.771 144.856 275.891 143.56 277.235 142.664C278.579 141.736 280.003 141.272 281.507 141.272C281.859 141.272 282.099 141.272 282.227 141.272C282.387 141.272 282.531 141.288 282.659 141.32V149.528Z" fill="#112159"/>
</svg>
