<svg width="299" height="299" viewBox="0 0 299 299" fill="none" xmlns="http://www.w3.org/2000/svg">
<path d="M134.893 0.0608777C136.819 0.140974 137.627 1.44921 138.772 2.7521C140.351 2.4157 141.929 2.0526 143.523 1.81765C144.192 1.74289 144.786 1.61474 145.385 2.02056C147.328 3.1953 148.981 4.90401 150.806 6.2603C152.202 7.3229 153.716 8.08115 155.268 8.86608C155.653 11.2102 155.616 13.832 156.493 16.048C157.226 16.7315 158.58 16.7796 159.532 16.7422C161.277 16.6674 162.753 14.8145 164.375 14.4675C165.996 14.4141 167.735 15.2844 169.201 15.9252C167.387 15.7543 165.466 15.5301 163.722 16.1762C161.421 16.9825 159.42 18.0558 156.884 17.8902C156.242 17.8155 155.225 17.6659 154.904 17.0252C153.796 14.5903 154.412 11.4612 153.54 8.99958C151.795 7.403 148.36 7.83552 146.242 7.02922C145.236 6.12146 144.615 4.7278 143.925 3.57976C143.251 3.88946 142.459 4.12975 141.875 4.59964C141.265 5.23507 140.848 6.06807 140.361 6.79427C137.814 5.19235 137.37 1.79629 134.615 1.06475C132.507 0.626889 130.045 2.22881 128.258 3.20064C128.66 3.85208 129.056 4.50887 129.473 5.14964C127.29 4.55159 126.257 4.05499 124.871 2.22347C127.75 0.162332 131.458 -0.163391 134.893 0.0608777Z" fill="#7882B7"/>
<path d="M134.615 1.06474C137.37 1.79628 137.814 5.19235 140.361 6.79426C140.848 6.06806 141.265 5.23506 141.875 4.59964C142.459 4.12974 143.251 3.88945 143.925 3.57975C144.615 4.72779 145.236 6.12146 146.241 7.02921C148.36 7.83551 151.795 7.40299 153.54 8.99957C154.412 11.4612 153.796 14.5903 154.904 17.0252C155.225 17.6659 156.242 17.8155 156.884 17.8902C159.42 18.0557 161.421 16.9825 163.722 16.1762C165.466 15.5301 167.387 15.7543 169.201 15.9252C170.886 16.4752 173.085 17.0679 174.311 18.4135C174.728 19.4494 174.669 20.7096 174.819 21.8096C173.845 20.6028 172.77 19.4975 171.673 18.3975C171.036 19.6256 170.244 20.5334 170.56 22.0125C171.031 23.7426 172.272 25.0988 172.588 26.9143C171.432 27.0051 170.153 26.941 169.04 27.2988C167.874 28.025 166.959 29.1837 165.766 29.8565C164.744 30.2997 163.572 30.4492 162.48 30.6628C162.892 31.0793 163.294 31.4958 163.7 31.9123C162.4 31.7468 160.929 31.7041 159.709 31.1861C158.623 30.6041 157.954 29.1677 157.29 28.1692C158.146 27.2241 159.158 26.2789 159.784 25.1629C160.046 24.4047 159.821 23.4435 159.794 22.6479C160.544 23.0858 161.293 23.5183 162.047 23.9508C162.727 22.6052 163.593 21.2596 164.011 19.8125C163.995 19.0276 163.24 18.0504 162.384 18.1572C160.025 18.1358 157.67 19.065 155.321 19.0596C155.006 19.065 154.717 18.9101 154.46 18.5951C153.368 16.9825 153.475 14.6437 152.368 13.0631C151.116 11.6801 149.58 10.5428 148.173 9.31995C147.477 8.85006 146.873 8.05444 145.969 8.52434C144.454 9.18646 144.117 11.7335 143.593 13.1272C143.063 13.2126 142.534 13.2927 142.004 13.3728C141.057 13.4369 140.11 13.4422 139.157 13.4529C138.901 11.4879 138.724 9.51753 138.579 7.54183C137.124 7.45105 135.535 7.1894 134.101 7.47241C132.71 7.66998 132.785 9.69908 132.4 10.7563C132.041 9.10103 131.651 7.52581 130.789 6.0467C130.356 5.737 129.917 5.43798 129.473 5.14963C129.055 4.50886 128.66 3.85208 128.258 3.20063C130.045 2.2288 132.507 0.626882 134.615 1.06474Z" fill="#2D59B0"/>
<path d="M122.694 5.35248C123.737 6.37771 124.54 7.55245 125.283 8.80728C124.727 8.85534 124.176 8.91942 123.635 8.99951C123.459 10.2917 123.459 11.6907 123.063 12.9349C122.539 13.597 121.682 14.0295 120.965 14.4674C121.645 15.4339 122.603 16.4858 122.854 17.6445C122.715 18.7178 122.266 19.7484 122.164 20.8217C122.159 21.7721 122.421 22.7386 122.603 23.6677C120.709 23.9828 118.959 24.693 117.231 25.5153C116.46 24.9546 115.652 24.458 114.893 23.892C115.583 23.8973 116.278 23.892 116.969 23.8546C117.097 22.3969 117.311 20.9552 117.563 19.5134C118.654 20.3411 119.542 21.3343 120.398 22.3969C120.527 20.6508 120.96 18.8673 120.933 17.1266C119.917 15.4819 118.156 14.2111 116.776 12.8601C118.017 11.6106 119.387 10.532 120.703 9.36795C121.805 8.44418 122.132 6.62867 122.694 5.35248Z" fill="#7882B7"/>
<path d="M130.789 6.04663C131.651 7.52573 132.041 9.10095 132.4 10.7563C132.785 9.699 132.71 7.66991 134.101 7.47234C135.535 7.18933 137.124 7.45098 138.579 7.54176C138.724 9.51745 138.901 11.4878 139.157 13.4528C140.11 13.4421 141.057 13.4368 142.004 13.3727C140.211 14.4407 139.189 16.0533 137.943 17.6499C136.873 19.4974 133.609 18.4668 131.897 18.3013C132.079 17.3882 132.26 16.4805 132.448 15.5727C132.212 15.4232 131.982 15.2737 131.747 15.1242C129.794 16.0479 127.937 16.347 127.215 18.6644C128.124 18.9367 129.029 19.2037 129.944 19.4547C129.906 20.6454 129.858 21.8362 129.794 23.0216C129.189 22.5891 128.606 22.1673 128.007 21.7241C128.322 21.409 128.638 21.0886 128.959 20.7736C127.568 20.4479 126.011 20.1702 124.775 19.428C124.481 18.627 124.363 17.7353 124.256 16.8916C125.091 17.0198 125.931 17.1533 126.765 17.2814C126.509 16.7261 126.252 16.1707 125.995 15.6154C127.659 14.948 130.013 14.3552 130.832 12.5878C131.19 11.8349 131.201 10.6602 130.136 10.5694C128.718 10.1796 127.311 9.78978 125.984 9.13833C127.664 8.9995 129.371 8.67378 131.03 8.38009C130.95 7.60583 130.869 6.82623 130.789 6.04663Z" fill="#7882B7"/>
<path d="M145.969 8.52438C146.873 8.05449 147.477 8.85011 148.173 9.32C149.58 10.5428 151.116 11.6802 152.368 13.0631C153.475 14.6437 153.368 16.9825 154.46 18.5951C154.717 18.9101 155.006 19.065 155.321 19.0597C157.67 19.065 160.025 18.1359 162.384 18.1572C163.24 18.0505 163.995 19.0276 164.011 19.8126C163.593 21.2596 162.727 22.6052 162.047 23.9508C161.293 23.5183 160.544 23.0858 159.794 22.648C159.821 23.4436 160.046 24.4047 159.784 25.163C159.158 26.279 158.147 27.2241 157.29 28.1692C157.954 29.1678 158.623 30.6041 159.709 31.1862C160.929 31.7041 162.4 31.7468 163.7 31.9124C163.294 31.4959 162.892 31.0794 162.48 30.6629C163.572 30.4493 164.744 30.2998 165.766 29.8566C166.959 29.1838 167.874 28.0251 169.04 27.2989C170.153 26.9411 171.432 27.0052 172.588 26.9144C172.272 25.0989 171.031 23.7426 170.56 22.0125C170.244 20.5334 171.036 19.6257 171.673 18.3975C172.77 19.4975 173.845 20.6028 174.819 21.8096C175.322 23.1606 175.862 24.4902 176.392 25.8304C176.611 29.5042 178.008 32.9002 178.072 36.6167C176.75 37.14 175.429 37.6739 174.102 38.2026C174.102 38.6885 174.134 39.1691 174.198 39.6443C177.457 39.9647 180.458 39.3292 183.658 38.7793C183.621 37.6846 183.626 36.6968 184.091 35.6929C184.873 34.1551 183.819 32.9216 183.31 31.4585C184.664 32.5425 186.071 33.4983 187.601 34.3206C186.745 32.6172 185.905 30.775 184.295 29.643C183.075 28.7726 181.807 27.9823 180.587 27.112C179.501 27.4697 178.414 27.8221 177.318 28.1532C177.901 26.7115 178.356 25.5367 180.132 25.3979C184.733 25.6168 189.26 26.4872 193.075 29.2265C193.482 29.8833 193.749 30.6415 194.049 31.3517C192.727 30.6522 191.416 29.9367 190.073 29.2692C190.747 32.3022 192.058 35.6128 194.22 37.8929C195.734 38.6351 197.762 38.5123 199.415 38.7579C197.596 36.4191 196.157 34.0322 194.905 31.3517C195.927 30.7323 196.917 30.1129 197.987 29.5736C199.26 29.7551 200.09 30.492 201.202 31.0901C202.861 32.0672 204.498 32.5798 205.863 33.9949C206.58 35.3885 207.093 37.172 208.185 38.3147C209.565 38.6885 211.133 38.6351 212.476 39.1263C213.423 39.5322 214.311 40.1356 215.183 40.6802C214.98 41.4598 214.772 42.2341 214.563 43.0083C212.235 42.5331 210.512 42.1913 208.329 43.3874C208.115 42.3622 207.928 41.3316 207.741 40.3064C207.463 40.3545 207.19 40.4025 206.917 40.4559C206.542 42.5491 206.43 44.4821 206.772 46.5966C208.308 45.7369 209.763 44.8772 211.545 44.6423C213.541 44.3486 215.462 43.8093 217.415 43.3447C218.897 42.9282 220.004 43.6544 221.278 44.2899C222.214 45.0962 223.14 45.9131 224.103 46.6767C223.809 47.3335 223.514 47.9849 223.22 48.6417C224.338 48.9461 225.467 49.2184 226.602 49.464C226.655 48.4014 226.709 47.3335 226.762 46.2709C228.838 47.9796 230.962 49.699 232.776 51.6854C233.761 53.7412 234.611 55.8504 235.687 57.8634C236.538 57.746 237.431 57.6765 238.255 57.4256C239.282 56.5605 240.064 55.3644 240.898 54.3179C242.236 55.514 243.333 56.7474 244.301 58.2586C243.124 58.093 241.99 57.8474 240.829 57.6071C240.668 59.0115 241.273 59.6202 242.156 60.6294C242.172 60.9551 242.188 61.2862 242.204 61.6173C239.759 61.3129 237.383 61.676 234.948 61.708C232.578 61.7241 230.695 60.5226 228.538 59.7323C225.339 62.6638 221.979 65.2643 217.966 67.005C214.616 68.1157 210.882 68.073 207.479 69.0074C206.574 69.1836 206.526 69.8938 206.195 70.6147C205.071 73.9574 204.119 77.3214 203.444 80.7815C202.342 82.1378 199.87 82.33 198.286 82.848C198.516 86.9863 199.859 91.4717 197.623 95.2949C195.643 99.4278 192.337 101.911 189.009 104.864C187.211 106.316 185.247 107.469 183.621 109.135C181.726 111.074 179.404 111.736 176.948 112.67C176.413 115.436 176.007 118.523 176.526 121.31C177.89 125.064 181.411 128.236 183.407 131.701C184.129 132.78 184.744 134.28 185.825 135.022C187.917 134.766 190.041 133.415 192.165 133.308C194.327 133.276 196.333 134.809 198.586 134.825C199.795 134.916 201.245 134.739 202.358 135.247C204.183 136.069 205.922 137.062 207.752 137.879C208.634 140.335 209.71 142.114 211.636 143.886C210.363 144.442 208.875 144.538 208.383 146.022C206.912 149.05 207.275 152.312 208.399 155.377C208.65 155.965 209.276 156.397 209.747 156.803C213.097 159.478 216.676 161.929 219.978 164.653C222.535 166.751 224.301 169.496 227.003 171.45C228.608 172.577 229.807 174.136 231.348 175.321C233.049 175.583 234.852 175.22 236.575 175.311C240.315 175.546 244.071 175.631 247.817 175.572C250.433 175.556 252.798 174.686 255.254 175.914C256.281 176.373 257.153 177.799 256.452 178.83C255.254 180.1 253.863 181.174 252.712 182.503C254.291 183.822 255.693 185.376 257.325 186.615C259.037 187.64 261.38 187.726 263.285 188.27C265.013 188.66 266.356 189.621 267.769 190.636C269.936 192.238 272.231 193.615 274.35 195.276C277.148 197.455 279.775 199.841 282.536 202.073C285.64 204.578 287.705 207.664 290.953 209.864C291.878 210.451 292.911 211.135 293.992 211.364C295.26 211.092 296.458 210.329 297.604 209.736C298.069 209.88 298.529 210.019 299 210.152C298.797 211.236 298.62 212.368 298.262 213.415C297.604 213.954 296.523 213.591 295.736 213.554C294.083 213.308 292.622 213.682 290.99 213.885C288.77 214.184 286.448 214.077 284.2 214.066C269.219 214.013 254.237 214.136 239.256 214.195C220.004 214.686 200.732 214.355 181.48 214.648C165.471 215.727 149.339 214.654 133.315 215.476C120.12 215.583 106.915 215.599 93.7204 215.599C90.1409 215.54 86.5935 215.893 83.0193 216.042C68.6316 216.122 54.0514 216.16 39.6691 216.117C38.813 216.042 38.0639 215.994 37.47 215.289C37.2292 213.885 37.272 212.395 37.2452 210.969C38.3314 210.094 39.4764 209.309 40.6429 208.545C42.3015 209.997 43.6178 212.454 46.1753 211.156C48.2781 209.148 50.5788 207.354 52.489 205.154C53.4146 204.118 54.961 203.707 55.8277 202.677C56.7052 200.979 56.9407 198.896 57.9038 197.241C59.6052 196.301 61.6706 196.088 63.4309 195.228C65.523 194.24 67.6899 192.59 68.6958 190.465C69.3486 188.297 69.279 186.081 70.2421 183.956C71.0554 182.06 72.3984 180.474 74.5012 180.01C76.8554 179.406 78.8994 180.565 80.97 181.51C81.473 179.444 82.1632 177.441 82.923 175.455C84.6138 175.546 86.251 175.695 87.8294 176.352C90.494 177.398 93.2175 178.285 95.9783 179.059C98.6055 179.7 101.302 179.743 103.667 178.264C106.663 176.459 109.74 174.809 112.651 172.87C113.924 172.069 115.139 171.359 116.685 171.274C120.077 171.044 123.523 171.503 126.921 171.349C127.771 171.306 128.579 171.162 129.323 170.729C133.234 168.332 135.952 165.058 138.681 161.449C141.319 157.807 145.198 155.057 148.82 152.323C150.495 150.946 152.17 152.067 154.15 152.003C155.739 151.074 156.595 148.468 158.462 148.196C162.395 147.363 166.451 147.347 170.389 146.076C171.726 145.793 171.919 143.796 172.416 142.733C173.733 142.087 176.173 141.788 176.328 140.02C176.745 138.114 175.397 136.833 174.241 135.54C172.085 133.383 170.201 131.023 167.895 129.069C166.435 127.771 164.92 126.644 164.225 124.743C162.641 120.557 164.332 115.388 163.208 111.239C161.592 109.621 159.511 108.489 157.836 106.898C155.466 109.039 154.118 111.853 151.448 113.439C149.816 113.808 148.205 113.717 146.563 113.466C146.755 112.339 146.948 111.213 147.124 110.081C148.826 109.248 150.533 109.44 152.341 109.184C153.395 108.575 154.16 107.363 154.851 106.386C155.006 104.832 154.968 103.219 155.247 101.681C155.68 99.6041 157.28 97.7405 157.665 95.6687C157.863 94.1842 157.67 92.3581 156.729 91.1353C155.835 90.5372 154.674 90.3076 153.818 89.6828C153.021 88.6897 152.4 87.5737 151.506 86.6445C150.666 88.8659 150.008 91.1513 149.158 93.3673C148.756 94.2163 148.307 95.0386 147.841 95.8556C147.387 95.9837 146.926 96.1119 146.477 96.2561C146.862 98.3813 162.274 100.354 157.836 106.898C157.125 107.133 145.701 103.096 144.984 103.315C143.743 103.23 142.518 103.043 141.292 102.835C139.436 102.29 135.712 101.286 135.712 101.286C135.712 101.286 132.26 99.6041 130.447 99.839C129.05 99.6414 128.055 97.9274 127.156 96.9929C127.21 96.1439 127.258 95.2949 127.301 94.4405C126.61 94.8303 125.915 95.2148 125.225 95.6099C123.384 93.8799 121.65 92.3153 120.885 89.8217C119.194 88.7377 117.916 87.611 116.621 86.0785C113.742 87.4348 110.955 88.3105 107.728 88.4227C107.557 87.8673 107.391 87.3173 107.22 86.7674C108.6 86.4737 109.975 86.1747 111.356 85.8703C110.644 83.3072 109.419 81.1713 109.408 78.4534C107.948 78.8325 106.439 79.185 105.064 79.8044C104.052 80.4344 103.405 81.6038 102.458 82.33C100.847 83.1203 98.5894 82.9228 97.1127 83.9373C96.3636 84.9091 95.8553 87.9154 96.2887 89.0528C97.3106 90.6066 98.7071 91.9416 99.9538 93.3245C101.067 94.6381 103.137 94.6915 104.62 95.5619C106.139 96.6939 107.38 98.8138 109.167 99.5453C110.698 99.9565 112.485 99.1075 114.063 99.5026C115.957 99.9725 117.803 100.608 119.713 101.035C119.735 102.247 119.74 103.459 119.724 104.671C121.383 103.513 122.71 103.214 124.727 103.118C124.77 104.041 124.823 104.96 124.818 105.884C124.063 107.865 121.602 108.484 119.74 108.884C116.054 109.701 112.431 109.317 108.825 108.356C108.996 109.328 109.167 110.305 109.339 111.277C108.279 111.474 107.193 111.656 106.171 112.003C106.225 113.039 106.562 113.947 106.893 114.924C105.363 115.65 104.261 115.271 102.838 114.561C101.864 112.291 101.249 110.46 101.837 107.945C100.403 107.24 98.8141 106.423 97.225 106.22C95.8767 106.054 94.3946 106.428 93.0676 106.679C93.5331 107.688 93.9933 108.703 94.4481 109.717C93.5064 109.83 92.5647 109.936 91.6176 110.043C91.4678 109.499 91.318 108.954 91.1628 108.409C90.6438 108.687 90.1195 108.965 89.6112 109.269C87.0215 110.284 88.0007 114.24 86.5453 116.333C85.8497 117.711 84.0733 117.343 82.7839 117.578C82.2863 115.997 82.0187 114.048 81.0182 112.697C78.4874 110.145 74.4958 109.664 71.3283 111.287C70.194 112.184 69.5359 113.776 68.7814 114.993C67.8558 114.817 66.9355 114.646 66.0099 114.481C64.2709 116.333 62.6658 117.759 60.0172 118.063C59.129 118.031 58.2408 117.973 57.3527 117.941C57.0263 119.329 56.8176 120.749 56.5929 122.154C55.9615 121.716 55.3141 121.283 54.6774 120.845C52.0128 122.047 49.4766 123.446 46.9244 124.872C45.7205 125.657 44.6718 124.941 43.4251 124.647C40.0382 126.762 36.432 127.008 32.5635 127.216C32.9755 127.958 33.3768 128.7 33.7834 129.448C32.0392 130.623 30.2735 131.525 28.3098 132.283C28.2938 133.122 28.2135 133.955 28.2028 134.793C25.7308 135.305 23.3873 134.921 20.9207 134.755C18.0742 134.601 16.148 136.363 13.4299 134.953C14.6391 134.109 16.0731 133.399 17.0897 132.331C17.8869 131.13 16.2925 129.971 15.6771 129.047C16.5279 129.261 17.4214 129.533 18.2989 129.555C19.2781 129.4 20.2091 128.818 21.1187 128.433C22.2316 128.209 23.3391 127.995 24.4628 127.835C26.2284 127.878 27.9834 127.798 29.7384 127.659C29.3104 126.244 28.77 124.968 28.0369 123.681C27.7855 124.872 27.5768 126.073 27.3788 127.275C24.4521 126.153 21.8998 125.55 18.7163 125.737C18.5611 123.91 18.4273 122.106 18.5504 120.269C19.1336 119.906 19.7168 119.543 20.3 119.174C20.8939 119.847 21.5146 120.504 22.1085 121.177C22.8201 120.765 23.5211 120.333 24.222 119.9C24.7998 119.543 25.367 119.158 25.9395 118.79C27.1059 119.681 28.2563 120.621 29.4655 121.449C30.0808 121.913 31.488 121.006 32.1943 120.824C32.922 121.385 33.639 121.951 34.3613 122.517C35.0676 121.711 35.9183 120.91 36.4159 119.959C36.2554 118.192 35.3832 116.451 34.8749 114.753C34.2008 115.159 33.5213 115.554 32.8471 115.949C33.3982 113.963 34.0242 111.998 34.6502 110.027C33.5534 110.807 32.4618 111.597 31.3757 112.382C31.8733 112.766 32.3762 113.156 32.8738 113.541C32.4779 113.909 32.0766 114.278 31.6807 114.646C29.1391 112.975 26.6458 111.8 23.6655 111.09C23.6602 110.235 23.6388 109.376 23.6227 108.516C22.9111 108.676 22.1995 108.831 21.4878 108.991C21.8677 109.814 22.2423 110.636 22.6222 111.453C21.9426 111.314 21.2631 111.17 20.5836 111.004C19.7703 110.78 18.9677 110.508 18.1544 110.267C17.5231 111.09 16.8168 112.024 16.5493 113.033C16.6188 113.813 17.1753 114.571 17.4963 115.271C17.4054 115.81 17.3091 116.349 17.2127 116.894C15.7253 114.961 13.8954 113.717 12.9163 111.426C12.5096 110.412 11.6963 109.904 10.8456 109.269C11.0007 108.361 11.0222 107.154 11.5947 106.396C12.3598 105.643 13.3657 105.104 14.2432 104.485C12.4989 103.817 10.6904 103.609 8.86052 103.315C7.95628 103.203 7.48008 102.391 6.97713 101.724C5.90701 100.101 4.92786 98.408 3.95941 96.7206C5.7251 96.0852 7.28211 95.1187 8.92473 94.2376C9.96809 93.5755 11.5412 94.3818 12.6434 94.6221C12.333 97.2706 12.012 99.9138 11.5893 102.541C12.0013 102.541 12.4079 102.546 12.8199 102.546L13.2694 102.552C14.9655 103.24 16.6349 103.919 18.4434 104.255C17.8655 103.123 17.2609 102.007 16.5439 100.955C17.1592 100.555 17.7906 100.106 18.4755 99.823C20.4605 99.6521 23.0074 101.169 24.864 100.186C27.2504 99.1235 28.2082 96.9395 30.1344 95.5031C31.3008 95.2896 32.5528 95.4124 33.7299 95.4391C34.2275 97.1798 34.5165 98.958 34.9071 100.725C35.0462 101.767 36.25 102.146 36.9991 102.728C37.6144 100.87 37.9034 99.038 38.005 97.0837C36.967 96.5177 35.9344 95.9517 34.8963 95.3963C36.7209 94.3284 37.8285 92.7051 39.1233 91.0925C41.0441 94.6221 44.1261 96.6832 47.1491 99.1715C46.6943 101.062 46.4696 102.984 46.3251 104.917C47.6093 103.235 48.6419 101.313 50.0598 99.7429C51.1085 98.7978 52.291 97.9915 53.3023 97.0036C54.0514 96.3041 54.2975 95.0546 54.6453 94.1202C55.7903 95.1187 57.0049 96.3682 58.4281 96.9342C59.2574 96.8274 60.0814 96.5871 60.8894 96.3842C59.6213 93.6182 57.7914 91.2047 55.7314 88.9833C56.2451 88.129 56.7534 87.2746 57.2724 86.4256C58.2408 86.6819 59.2039 86.9436 60.1831 87.1411C59.4715 88.0863 58.0375 89.2984 58.7652 90.6013C59.7711 92.294 61.0017 93.677 61.4458 95.6687C61.9327 95.8182 62.4196 95.9624 62.9119 96.0959C63.6717 99.1342 63.1473 103.059 65.3945 105.318C65.6567 105.633 65.9242 105.937 66.1971 106.236C68.1661 106.241 68.439 104.997 69.2041 103.513C68.6423 103.347 68.0805 103.182 67.5134 103.027C66.791 101.019 65.6139 99.4172 64.1853 97.8473C64.3619 97.3133 64.5331 96.7847 64.7097 96.2561C66.4807 96.7153 66.9302 98.2211 68.3052 99.2677C69.7231 99.7909 71.3925 99.7589 72.8907 99.8871C71.8313 98.5575 70.7237 97.0677 69.37 96.0318C67.7381 94.8303 65.7851 94.0828 63.8268 93.6289C63.5272 92.5556 63.2436 91.4503 62.8477 90.4037C62.2645 90.0833 61.6759 89.779 61.0766 89.4906C61.7615 89.2717 62.4571 89.0688 63.1473 88.8659C62.9065 88.3853 62.6604 87.9047 62.4196 87.4241C62.6551 86.7033 63.0296 85.9183 63.0243 85.1494C62.6069 83.8892 61.7241 82.7626 61.0927 81.5985C60.6004 80.648 60.1724 79.6655 59.7444 78.683C58.899 78.7898 58.0322 78.8699 57.2082 79.0835C56.2879 80.1247 55.7475 81.4971 54.8753 82.581C54.244 83.2752 53.42 83.8038 52.6549 84.3538C53.3023 85.4271 53.832 86.511 54.2386 87.7018C53.4949 87.2372 52.7351 86.8101 51.97 86.3776C50.3809 87.3761 48.8613 88.0756 47.0582 88.6096C47.3418 87.2746 47.8394 85.8382 47.7644 84.4659C47.3739 83.115 46.4001 82.7946 45.1159 82.6665C44.2277 80.7442 43.6499 78.635 42.5798 76.8034C41.6327 75.2389 39.9526 74.8491 38.4063 74.0748C36.7262 73.3166 35.4207 72.2273 33.9279 71.1754C34.3238 72.3074 35.089 73.5569 35.1211 74.7583C34.5379 77.0971 32.8257 78.8966 31.1724 80.5573C30.327 80.0019 29.4709 79.4519 28.6041 78.9233C28.2028 78.699 27.7962 78.4748 27.3842 78.2558C27.5072 76.9583 27.6142 75.6607 27.7212 74.3632C28.5987 75.1321 29.4816 75.901 30.3751 76.6486C30.8406 74.502 30.5035 73.7011 29.3746 71.8642C29.9738 71.389 30.5356 70.887 31.1082 70.3797C29.9899 70.4492 28.877 70.5186 27.7587 70.5827C28.2617 69.5841 28.4489 68.5215 29.6153 68.0837C33.1307 66.5618 36.2982 67.7579 39.7868 68.5002C41.0816 70.8763 43.1523 72.0618 45.3888 73.4074C45.9346 72.6331 46.4696 71.8055 47.1438 71.138C48.5189 70.6147 50.5574 70.7108 51.6383 71.8321C52.2215 72.3875 52.7405 73.0229 53.2648 73.637C53.7945 73.1457 54.3242 72.6598 54.8486 72.1739C55.0787 73.0069 55.3248 73.8399 55.5495 74.6729C57.7807 73.4394 59.9316 72.6758 62.4357 72.1632C62.1414 71.5118 61.8525 70.855 61.5635 70.1982C63.2276 69.771 65.4159 68.8312 67.1228 69.3438C69.2791 70.9671 70.2421 74.9132 73.3027 74.8971C76.1759 75.052 78.8191 74.9238 81.489 76.2321C80.8951 74.4967 80.8898 73.2365 81.2376 71.4477C79.9748 71.4424 78.7121 71.4263 77.4494 71.4103C77.3744 70.8283 77.2942 70.2463 77.2139 69.6696C78.4981 68.7832 79.8036 67.9448 81.1519 67.1652C82.5698 68.5375 84.0413 69.6749 85.8069 70.5666C88.204 71.736 89.4132 74.0161 91.0344 76.0505C93.4208 75.5112 95.7001 74.9452 98.1667 75.3243C100.243 75.6661 102.169 74.9345 104.234 75.1107C105.262 75.2122 106.225 75.036 107.215 74.7637C106.364 73.7491 104.962 72.7185 104.502 71.4637C104.636 68.9914 105.476 66.5512 105.706 64.0682C107.76 63.3206 110.04 63.1177 112.019 62.2153C112.993 60.4479 112.581 58.0824 114.994 57.6018C117.595 57.0198 119.285 59.4974 119.986 61.6546C122.897 61.7561 125.572 62.3969 128.472 61.6226C129.189 62.274 129.896 62.9308 130.602 63.5876C131.64 61.9643 132.014 60.7736 132.116 58.8406C131.041 58.9207 129.73 59.1823 128.692 58.8086C127.274 58.2372 126.006 57.0304 124.845 56.0533C126.321 54.7611 128.108 54.195 129.767 53.2339C131.26 51.6533 132.346 49.7524 133.989 48.2786C132.892 47.6218 131.859 46.8316 130.543 46.7888C128.954 46.7087 127.322 46.9971 125.797 47.4243C126.065 46.4578 126.295 45.3631 126.803 44.4928C127.718 44.2685 128.708 44.2578 129.644 44.1937C132.426 44.0869 135.064 43.1632 137.852 42.9709C138.109 44.5462 138.382 46.0893 138.472 47.6806C138.242 48.1558 138.007 48.6257 137.777 49.0956C139.778 50.7776 141.763 52.0004 144.299 52.7266C143.545 53.1645 142.79 53.613 142.041 54.0562C143.47 55.3538 144.765 56.7528 145.995 58.2425C147.44 56.7741 148.751 56.0372 150.693 55.3805C152.298 54.8892 153.326 53.8693 154.374 52.6252C153.465 52.0431 152.566 51.4558 151.624 50.9378C151.539 50.2917 151.448 49.6509 151.367 49.0048C151.292 48.3 151.218 47.5951 151.153 46.8903C151.121 46.5379 151.089 46.1855 151.057 45.833C152.106 45.5767 153.149 45.3204 154.198 45.0641C154.412 44.3806 154.615 43.6971 154.856 43.0243C156.038 43.1899 157.446 43.27 158.494 43.868C159.506 44.5782 160.26 45.7476 160.902 46.7888C160.078 47.216 159.254 47.6485 158.435 48.0757C158.917 48.6631 159.393 49.2505 159.875 49.8378C159.399 50.7242 158.328 51.7655 158.708 52.8334C158.906 53.7785 159.217 54.713 159.506 55.6368C159.987 55.279 160.463 54.9212 160.94 54.5635C162.063 54.8839 163.203 55.1722 164.342 55.4392C164.562 56.395 164.792 57.3455 165.022 58.2959C167.435 57.5324 170.169 56.1601 172.721 56.5338C175.017 56.8329 177.285 57.1479 179.608 57.1479C179.613 55.9839 179.806 54.6062 179.388 53.5062C178.441 51.8829 176.563 51.114 174.83 50.6388C174.327 50.5106 173.818 50.3985 173.305 50.3077C172.342 47.9743 171.427 45.6622 170.052 43.5263C169.297 44.2044 168.109 45.0161 167.82 46.0146C167.505 48.5723 168.837 51.3009 166.729 53.3941C165.145 54.5688 163.866 53.346 162.86 52.0805C162.989 50.7242 163.074 49.4534 163.85 48.284C164.503 47.0452 165.803 45.5126 165.701 44.0602C164.915 42.5705 163.508 41.353 162.379 40.1035C163.09 39.2865 163.791 38.4642 164.482 37.6259C163.123 37.3749 161.384 36.2376 160.453 37.8555C160.33 39.2545 160.447 40.6108 160.009 41.9724C159.094 40.7977 159.195 39.5268 158.842 38.1599C158.489 37.1987 157.633 36.3764 157.007 35.5808C155.311 35.757 153.791 35.7303 152.357 36.7929C149.682 38.6725 148.312 42.0685 146.771 44.8505C144.941 44.5568 143.101 44.3166 141.271 43.9962C140.886 43.8413 140.495 43.6918 140.11 43.5476C140.035 41.0059 140.522 37.9569 139.639 35.5541C138.456 34.5449 136.75 34.2138 135.535 33.2259C134.39 32.2381 133.534 30.8818 132.362 29.9313C131.672 29.7284 130.875 29.8459 130.158 29.8512C130.479 30.9566 130.805 32.0672 131.132 33.1725L131.03 33.6318C130.532 34.9293 130.013 36.4405 129.045 37.4603C127.943 38.32 126.573 38.8861 125.326 39.5215C125.722 40.5948 126.225 41.7001 126.412 42.8374C126.022 43.6117 125.396 44.2845 124.855 44.9627C124.112 44.3379 123.373 43.7078 122.635 43.0777C121.896 44.717 120.901 46.1054 119.767 47.4937C119.173 48.1879 119.194 49.1437 119.018 50.0087C118.028 49.8378 116.846 49.416 115.856 49.667C114.224 50.3665 112.929 51.8402 111.302 52.5824C110.045 52.8975 108.611 52.6412 107.327 52.5771L107.182 51.5786C107.429 49.9339 107.873 48.3854 108.295 46.7888C110.056 48.3267 111.698 49.2398 114.031 48.1718C116.632 46.4578 117.958 42.6879 120.147 40.5147C120.971 39.7938 122.041 39.3079 123.004 38.7899C122.983 38.272 122.967 37.754 122.951 37.2361C121.217 36.9744 119.462 36.8036 117.75 36.4351C116.257 36.1254 115.123 35.3512 113.78 34.6997C111.757 33.6585 109.323 33.5196 107.118 32.7507C106.374 32.3716 105.636 31.9551 104.876 31.624C103.79 31.1541 102.661 30.7697 101.527 30.4333C101.415 29.8245 101.308 29.2212 101.2 28.6124C101.318 27.6887 101.024 26.1081 101.944 25.5581C103.715 25.5955 105.577 26.2149 107.37 26.1775C108.509 26.1401 109.697 25.7931 110.805 25.5154C110.366 24.6183 109.933 23.7212 109.494 22.8295C110.735 22.0873 112.035 21.9057 113.459 21.847C113.806 22.4611 114.127 23.0751 114.529 23.6518C115.048 24.394 115.599 25.2858 116.364 25.7877C118.033 25.9853 119.724 25.6756 121.404 25.8678C122.688 25.8945 123.844 26.4018 124.909 25.4513C126.466 24.2178 127.809 23.3955 129.794 23.0217C129.858 21.8363 129.906 20.6456 129.944 19.4548C129.029 19.2038 128.125 18.9368 127.215 18.6645C127.937 16.3471 129.794 16.0481 131.747 15.1243C131.982 15.2738 132.212 15.4233 132.448 15.5728C132.261 16.4806 132.079 17.3883 131.897 18.3014C133.609 18.4669 136.873 19.4975 137.943 17.65C139.189 16.0534 140.211 14.4408 142.004 13.3729C142.534 13.2928 143.063 13.2127 143.593 13.1272C144.117 11.7336 144.454 9.18651 145.969 8.52438Z" fill="#112159"/>
<path d="M123.635 8.9996C124.176 8.91951 124.727 8.85543 125.283 8.80737L125.984 9.13844C127.311 9.78988 128.718 10.1797 130.136 10.5695C128.215 10.4093 126.268 10.7137 124.342 10.9326C124.695 11.4559 125.075 11.9952 125.332 12.5665C124.968 14.035 124.336 15.3592 124.256 16.8917C124.363 17.7354 124.481 18.6271 124.775 19.4281C126.011 20.1703 127.568 20.448 128.959 20.7737C128.638 21.0887 128.322 21.4091 128.007 21.7242C128.606 22.1674 129.189 22.5892 129.794 23.0217C127.809 23.3955 126.466 24.2178 124.909 25.4513C123.844 26.4018 122.688 25.8945 121.404 25.8678C119.724 25.6756 118.033 25.9853 116.364 25.7877C115.599 25.2858 115.048 24.394 114.529 23.6518L114.893 23.8921C115.652 24.4581 116.46 24.9547 117.231 25.5154C118.959 24.6931 120.709 23.9829 122.603 23.6678C122.421 22.7387 122.159 21.7722 122.164 20.8218C122.266 19.7485 122.715 18.7179 122.854 17.6446C122.603 16.4859 121.645 15.434 120.965 14.4675C121.682 14.0296 122.539 13.5971 123.063 12.935C123.459 11.6908 123.459 10.2918 123.635 8.9996Z" fill="#2D59B0"/>
<path d="M130.136 10.5695C131.201 10.6603 131.19 11.835 130.832 12.5879C130.013 14.3554 127.659 14.9481 125.995 15.6156C126.252 16.1709 126.509 16.7262 126.765 17.2815C125.931 17.1534 125.091 17.0199 124.256 16.8917C124.336 15.3592 124.968 14.035 125.331 12.5666C125.075 11.9952 124.695 11.4559 124.342 10.9326C126.268 10.7137 128.215 10.4093 130.136 10.5695Z" fill="#112159"/>
<path d="M144.182 15.7596C145.011 16.3256 146.231 17.0678 146.407 18.1251C146.627 19.4173 145.958 20.9071 145.599 22.1352C144.133 21.3343 141.661 20.4852 141.629 18.4882C142.213 17.4149 143.283 16.5552 144.182 15.7596Z" fill="#7882B7"/>
<path d="M173.497 16.6514C175.734 17.9063 176.296 20.3572 177.269 22.5465C181.598 22.2848 185.525 23.0698 189.736 21.6441C191.331 23.5557 193.037 25.7823 195.146 27.1386C196.74 28.1532 199.249 27.2828 200.732 28.4736C201.807 29.2051 202.866 29.9527 203.963 30.6575C206.259 32.0085 206.986 34.4167 209.153 36.0346C210.973 37.6045 213.926 37.0545 216.184 37.3428C218.078 37.4496 219.533 38.6297 221.074 39.6069C222.369 38.6084 223.9 37.738 224.996 36.5098C225.842 34.8332 226.12 32.8308 226.671 31.0313C229.507 32.19 230.631 34.7584 233.076 36.889C232.551 38.587 232.118 40.1943 231.016 41.6306C230.39 42.5544 229.459 43.4942 229.164 44.5782C229.009 45.817 229.197 47.3762 230.01 48.3694C231.16 49.4266 233.3 50.1155 234.708 49.181C235.462 48.5029 235.97 47.5097 236.505 46.6553C238.298 47.0238 240.096 47.3602 241.899 47.6699C242.263 48.9301 242.391 50.7616 243.295 51.7387C245.291 52.3475 247.538 52.2567 249.609 52.4703C246.292 52.8387 243.397 52.8174 240.454 51.0659C240.695 50.1315 240.93 49.1917 241.171 48.2519C239.951 48.1077 238.159 47.5043 237.062 48.2039C236.174 49.0101 235.762 50.4198 235.275 51.4931C234.445 51.5572 233.611 51.6266 232.776 51.6853C230.962 49.699 228.838 47.9796 226.762 46.2709C226.709 47.3335 226.655 48.4014 226.602 49.464C225.467 49.2184 224.338 48.9461 223.22 48.6417C223.514 47.9849 223.809 47.3335 224.103 46.6767C223.14 45.9131 222.214 45.0961 221.278 44.2898C219.512 42.3462 217.479 42.8695 215.109 42.6185C215.826 41.2515 216.596 40.3064 217.773 39.3079C215.2 38.9768 212.423 38.7312 209.993 37.7807C208.378 36.9477 207.233 35.1803 205.863 33.9948C204.498 32.5798 202.861 32.0672 201.202 31.09C200.09 30.492 199.26 29.7551 197.987 29.5735C194.594 29.2692 192.197 26.4765 189.014 24.96C189.078 24.5435 189.142 24.127 189.201 23.7105C188.094 24.1377 186.874 24.6984 185.68 24.7945C183.637 24.8799 181.577 23.9028 179.554 23.9562C178.404 24.2926 177.382 25.1843 176.392 25.8304C175.862 24.4901 175.322 23.1605 174.819 21.8096C174.669 20.7096 174.728 19.4494 174.311 18.4135C173.085 17.0679 170.886 16.4752 169.201 15.9252C170.758 15.9145 172.127 15.7276 173.497 16.6514Z" fill="#7882B7"/>
<path d="M107.322 16.5499C109.093 16.9023 110.864 17.4203 111.966 18.9581C110.334 18.8033 108.643 18.296 107.017 18.4241C105.16 18.8513 103.41 19.8552 101.709 20.6775C101.04 21.1955 100.141 21.6707 100.05 22.5998C100.179 23.3367 100.382 24.0469 100.58 24.7677C101.982 24.3192 103.384 23.8653 104.78 23.3954C105.096 23.9027 105.417 24.4153 105.738 24.9226C106.46 24.5275 107.188 24.1323 107.91 23.7212C108.434 23.4221 108.959 23.1178 109.494 22.8294C109.933 23.7212 110.366 24.6182 110.805 25.5153C109.697 25.793 108.509 26.14 107.37 26.1774C105.577 26.2148 103.715 25.5954 101.944 25.558C101.024 26.108 101.318 27.6886 101.2 28.6123C100.344 28.9381 99.4883 29.2798 98.6215 29.5628C99.1138 28.8847 99.8575 28.1585 100.077 27.3255C100.098 25.809 99.6167 24.2551 99.3385 22.7653C98.5413 22.3595 97.7601 21.927 96.9682 21.5052C99.2957 20.0314 101.741 18.7979 104.138 17.4523C105.176 16.945 106.118 16.3096 107.322 16.5499Z" fill="#7882B7"/>
<path d="M111.966 18.9581C112.479 19.9139 112.945 20.8911 113.459 21.8469C112.035 21.9057 110.735 22.0872 109.494 22.8294C108.959 23.1178 108.434 23.4221 107.91 23.7212C107.621 22.493 107.311 21.2702 106.91 20.0688C106.38 20.496 105.861 20.9338 105.342 21.3717C104.127 21.1528 102.918 20.9232 101.709 20.6775C103.41 19.8552 105.16 18.8513 107.017 18.4242C108.643 18.296 110.334 18.8033 111.966 18.9581Z" fill="#2D59B0"/>
<path d="M106.91 20.0688C107.311 21.2703 107.621 22.4931 107.91 23.7212C107.188 24.1324 106.46 24.5275 105.738 24.9227C105.417 24.4154 105.096 23.9028 104.78 23.3955C103.384 23.8654 101.982 24.3193 100.58 24.7678C100.382 24.0469 100.179 23.3368 100.05 22.5999C100.141 21.6708 101.04 21.1955 101.709 20.6776C102.918 20.9232 104.127 21.1528 105.342 21.3717C105.861 20.9339 106.38 20.496 106.91 20.0688Z" fill="#112159"/>
<path d="M185.68 24.7945C186.874 24.6984 188.094 24.1377 189.201 23.7105C189.142 24.127 189.078 24.5435 189.014 24.96C192.197 26.4765 194.594 29.2692 197.987 29.5735C196.917 30.1128 195.927 30.7323 194.905 31.3517C196.157 34.0322 197.596 36.4191 199.415 38.7579C197.762 38.5122 195.734 38.635 194.22 37.8928C192.058 35.6128 190.747 32.3021 190.073 29.2692C191.416 29.9366 192.727 30.6522 194.049 31.3517C193.749 30.6415 193.482 29.8832 193.075 29.2264C189.26 26.4872 184.733 25.6168 180.132 25.3979C178.355 25.5367 177.901 26.7114 177.317 28.1532C178.414 27.8221 179.501 27.4697 180.587 27.1119C181.807 27.9823 183.075 28.7726 184.295 29.6429C185.905 30.775 186.745 32.6172 187.601 34.3205C186.071 33.4982 184.664 32.5424 183.31 31.4585C183.818 32.9215 184.872 34.155 184.091 35.6929C183.626 36.6967 183.62 37.6846 183.658 38.7792C180.458 39.3292 177.457 39.9646 174.198 39.6443C174.134 39.169 174.102 38.6884 174.102 38.2025C175.429 37.6739 176.75 37.1399 178.072 36.6166C178.008 32.9002 176.611 29.5041 176.392 25.8304C177.382 25.1843 178.404 24.2925 179.554 23.9561C181.577 23.9027 183.636 24.8799 185.68 24.7945Z" fill="#2D59B0"/>
<path d="M143.149 24.1804C143.861 24.9974 144.577 25.809 145.3 26.6207C147.927 25.7823 149.644 25.6008 152.304 26.5513C152.882 28.6765 153.92 30.9459 153.936 33.1618C153.764 34.1764 152.229 34.5074 151.426 34.8972C151.062 34.0376 150.693 33.1779 150.329 32.3182C149.671 32.8628 149.013 33.4021 148.35 33.9414C146.546 33.039 144.765 32.2381 142.742 31.9818C142.277 31.2235 141.801 30.476 141.276 29.7604C140.409 28.6604 139.543 27.5605 138.745 26.4017C140.169 25.5314 141.592 24.7998 143.149 24.1804Z" fill="#2D59B0"/>
<path d="M101.2 28.6124C101.307 29.2211 101.414 29.8245 101.527 30.4332C100.692 30.807 99.6221 31.1167 99.2582 32.0458C98.8569 32.9108 99.3866 33.8186 99.713 34.6142C97.7119 33.1244 95.5128 32.8361 93.1211 32.4356C93.79 33.4769 94.5069 34.4967 95.2025 35.522C91.8691 36.6487 88.6588 38.0957 85.5768 39.7937L85.9353 39.404C88.2789 36.7768 90.5903 34.0589 93.18 31.6667C94.7531 30.2089 96.6043 29.9633 98.6215 29.5628C99.4883 29.2798 100.344 28.9381 101.2 28.6124Z" fill="#2D59B0"/>
<path d="M132.362 29.9314C133.534 30.8818 134.39 32.2381 135.535 33.226C136.75 34.2138 138.456 34.5449 139.639 35.5541C140.522 37.957 140.035 41.0059 140.11 43.5477C139.655 43.3981 139.195 43.2593 138.735 43.1365C138.815 44.3486 138.943 45.5501 139.077 46.7568C141.447 47.0559 143.716 47.6592 145.995 48.3641C146.846 48.6684 147.568 48.3908 148.408 48.1879C149.398 48.4388 150.383 48.7219 151.367 49.0049C151.448 49.651 151.539 50.2917 151.624 50.9378C150.26 50.5213 148.703 50.0034 147.258 50.1262C146.022 50.3238 144.829 51.0606 143.695 51.5626C143.877 50.6228 144.058 49.6883 144.246 48.7485C142.309 48.4549 140.393 48.0384 138.472 47.6806C138.382 46.0894 138.109 44.5462 137.852 42.971C135.064 43.1632 132.426 44.087 129.644 44.1938C128.708 44.2578 127.718 44.2685 126.803 44.4928C126.295 45.3632 126.065 46.4578 125.797 47.4243C124.208 48.2146 122.715 49.2345 121.094 49.95C120.398 50.2917 119.751 50.1262 119.018 50.0087C119.194 49.1437 119.173 48.1879 119.767 47.4937C120.901 46.1054 121.896 44.7171 122.635 43.0778C123.373 43.7078 124.112 44.3379 124.855 44.9627C125.396 44.2845 126.022 43.6117 126.412 42.8375C126.225 41.7001 125.722 40.5948 125.326 39.5215C126.573 38.8861 127.943 38.3201 129.045 37.4604C130.013 36.4405 130.532 34.9293 131.03 33.6318C130.912 35.1216 130.901 36.6114 130.917 38.1065C131.597 37.5244 132.469 36.9584 132.919 36.1735C133.416 34.9774 133.571 33.6051 133.796 32.3342C132.908 32.6119 132.02 32.8896 131.132 33.1726C130.805 32.0672 130.479 30.9566 130.158 29.8513C130.875 29.8459 131.672 29.7284 132.362 29.9314Z" fill="#7882B7"/>
<path d="M141.276 29.7604C141.801 30.476 142.277 31.2235 142.742 31.9818C141.592 32.0992 140.409 32.3342 139.259 32.3021C138.414 32.19 137.643 31.4958 136.91 31.0954C138.344 30.4653 139.735 30.0381 141.276 29.7604Z" fill="#7882B7"/>
<path d="M101.527 30.4332C102.661 30.7696 103.79 31.1541 104.876 31.624C103.806 31.5759 102.736 31.608 101.666 31.6667C101.313 33.6424 101.971 35.1802 102.907 36.8729C102.576 37.236 102.239 37.5991 101.907 37.9622C101.19 36.8356 100.462 35.7196 99.7131 34.6142C99.3867 33.8186 98.857 32.9109 99.2583 32.0458C99.6221 31.1167 100.692 30.807 101.527 30.4332Z" fill="#7882B7"/>
<path d="M101.666 31.6666C102.736 31.6079 103.806 31.5759 104.876 31.6239C105.636 31.955 106.374 32.3715 107.118 32.7506C108.734 33.605 110.302 34.4059 111.538 35.7943C112.362 36.7501 113.336 37.252 114.491 37.7219C114.234 38.5175 113.978 39.3131 113.71 40.1087C112.929 39.4039 112.148 38.6991 111.361 37.9942C110.971 39.5 110.585 41.0058 110.2 42.517C108.788 42.2713 107.37 42.0524 105.941 41.8655C104.951 40.1888 103.822 38.5976 102.907 36.8729C101.971 35.1802 101.313 33.6423 101.666 31.6666Z" fill="#F8FBFB"/>
<path d="M93.1212 32.4356C95.5129 32.8361 97.712 33.1244 99.7131 34.6142C100.462 35.7195 101.19 36.8355 101.907 37.9622C102.239 37.5991 102.576 37.236 102.907 36.8729C103.822 38.5976 104.951 40.1889 105.941 41.8656C106.273 42.7146 106.54 43.585 106.813 44.4553C105.449 43.9267 103.747 43.4621 102.667 42.4369C101.918 41.417 102.073 39.703 101.928 38.4909C101.142 38.9821 100.355 39.4734 99.5847 39.9806C98.4878 40.6588 97.3535 41.6787 96.0908 41.9777C94.2074 41.7214 92.5166 40.2316 90.6225 39.9806C88.3967 40.1088 86.9574 41.4811 84.7369 40.3544L85.5769 39.7937C88.6588 38.0957 91.8692 36.6486 95.2026 35.522C94.507 34.4967 93.79 33.4769 93.1212 32.4356Z" fill="#112159"/>
<path d="M133.796 32.3342C133.571 33.605 133.416 34.9773 132.919 36.1734C132.469 36.9584 131.597 37.5244 130.917 38.1064C130.901 36.6113 130.912 35.1215 131.03 33.6317L131.131 33.1725C132.02 32.8895 132.908 32.6118 133.796 32.3342Z" fill="#F8FBFB"/>
<path d="M227.923 32.0939C229.421 33.8347 230.732 35.5808 231.133 37.8982C229.148 38.256 227.222 38.7793 225.312 39.4361C225.933 36.6968 225.82 34.1764 227.923 32.0939Z" fill="#2D59B0"/>
<path d="M107.118 32.7507C109.323 33.5196 111.757 33.6584 113.78 34.6997C115.123 35.3511 116.257 36.1254 117.75 36.4351C119.462 36.8035 121.217 36.9744 122.951 37.236C122.967 37.754 122.983 38.2719 123.004 38.7899C122.041 39.3079 120.971 39.7938 120.147 40.5146C117.958 42.6879 116.632 46.4577 114.031 48.1718C111.698 49.2397 110.056 48.3266 108.295 46.7888C107.873 48.3854 107.429 49.9339 107.182 51.5785C106.439 49.0262 105.545 46.6553 103.624 44.7384C102.126 43.2646 100.692 41.7908 99.5846 39.9807C100.355 39.4734 101.142 38.9821 101.928 38.4909C102.073 39.703 101.917 41.417 102.667 42.4369C103.747 43.4622 105.449 43.9267 106.813 44.4554C106.54 43.585 106.273 42.7146 105.941 41.8656C107.37 42.0525 108.788 42.2714 110.2 42.517C110.585 41.0059 110.971 39.5001 111.361 37.9943C112.148 38.6991 112.929 39.404 113.71 40.1088C113.978 39.3132 114.234 38.5176 114.491 37.722C113.336 37.2521 112.362 36.7501 111.538 35.7943C110.302 34.406 108.734 33.605 107.118 32.7507Z" fill="#7882B7"/>
<path d="M106.134 34.5929C106.588 34.5395 107.049 34.5021 107.514 34.4754C107.915 36.4244 108.022 38.3948 107.99 40.3758C106.53 38.5443 105.936 36.9744 106.134 34.5929Z" fill="#7882B7"/>
<path d="M118.049 34.7211C119.66 34.6143 120.366 34.7851 121.656 35.7196C120.286 35.6555 119.221 35.4206 118.049 34.7211Z" fill="#F8FBFB"/>
<path d="M205.863 33.9948C207.232 35.1802 208.377 36.9477 209.993 37.7807C212.423 38.7311 215.199 38.9768 217.773 39.3078C216.596 40.3064 215.825 41.2515 215.108 42.6185C217.479 42.8694 219.512 42.3461 221.278 44.2898C220.004 43.6544 218.897 42.9282 217.415 43.3447C215.462 43.8092 213.541 44.3485 211.545 44.6422C209.763 44.8772 208.308 45.7369 206.772 46.5966C206.43 44.482 206.542 42.549 206.917 40.4559C207.19 40.4025 207.463 40.3544 207.741 40.3064C207.928 41.3316 208.115 42.3622 208.329 43.3874C210.512 42.1913 212.235 42.533 214.563 43.0083C214.771 42.234 214.98 41.4597 215.183 40.6801C214.311 40.1355 213.423 39.5321 212.476 39.1263C211.133 38.635 209.565 38.6884 208.185 38.3147C207.093 37.172 206.58 35.3885 205.863 33.9948Z" fill="#7882B7"/>
<path d="M157.007 35.5807C157.135 36.1414 157.269 36.7021 157.403 37.2628C156.723 37.4176 156.049 37.5938 155.38 37.7807C153.673 38.1705 152.577 39.2865 151.351 40.4506C152.534 41.3103 153.77 42.0739 155.043 42.7894L154.856 43.0243C154.615 43.6971 154.412 44.3806 154.198 45.0641C153.149 45.3204 152.106 45.5767 151.057 45.833C151.089 46.1854 151.121 46.5379 151.153 46.8903C147.863 45.4966 144.412 46.0199 141.271 43.9962C143.101 44.3165 144.941 44.5568 146.771 44.8505C148.312 42.0685 149.682 38.6724 152.357 36.7929C153.791 35.7303 155.311 35.757 157.007 35.5807Z" fill="#7882B7"/>
<path d="M157.007 35.5807C157.633 36.3764 158.489 37.1987 158.842 38.1598C159.195 39.5268 159.094 40.7977 160.008 41.9724C160.447 40.6108 160.33 39.2545 160.453 37.8555C161.384 36.2375 163.123 37.3749 164.482 37.6259C163.791 38.4642 163.09 39.2865 162.379 40.1035C163.508 41.353 164.915 42.5704 165.701 44.0602C165.803 45.5126 164.503 47.0451 163.85 48.284C163.074 49.4534 162.989 50.7242 162.86 52.0805C162.293 50.2703 161.801 48.4762 160.902 46.7888C160.26 45.7476 159.506 44.5782 158.494 43.868C157.446 43.27 156.038 43.1899 154.856 43.0243L155.043 42.7894C155.482 42.4049 155.926 42.0311 156.37 41.668C156.054 40.3651 155.723 39.0729 155.38 37.7807C156.049 37.5938 156.723 37.4176 157.403 37.2628C157.269 36.7021 157.135 36.1414 157.007 35.5807Z" fill="#2D59B0"/>
<path d="M119.457 38.5923C118.617 38.9394 117.718 39.4787 116.797 39.5641C116.059 39.3452 115.438 38.667 114.834 38.2078C116.787 37.6845 117.67 37.4015 119.457 38.5923Z" fill="#F8FBFB"/>
<path d="M155.38 37.7806C155.723 39.0729 156.054 40.3651 156.37 41.668C155.926 42.0311 155.482 42.4048 155.043 42.7893C153.77 42.0738 152.534 41.3102 151.351 40.4505C152.577 39.2864 153.673 38.1704 155.38 37.7806Z" fill="#112159"/>
<path d="M231.133 37.8982C231.16 38.6725 231.166 39.4414 231.171 40.2156C230.438 40.285 229.71 40.3545 228.977 40.4239C228.79 41.5986 228.597 42.7734 228.383 43.9481C227.34 42.9869 226.05 42.0952 225.242 40.9205C225.189 40.4346 225.259 39.9166 225.312 39.436C227.222 38.7792 229.148 38.256 231.133 37.8982Z" fill="#112159"/>
<path d="M139.147 38.7311C138.949 39.8899 138.74 41.0432 138.526 42.1913C135.567 42.2767 132.785 41.983 129.965 43.0884C130.415 42.2927 130.768 41.2355 131.463 40.6321C133.834 39.2491 136.429 38.7685 139.147 38.7311Z" fill="#F8FBFB"/>
<path d="M85.9353 39.404L85.5768 39.7938L84.7368 40.3545C83.6132 41.1074 82.0883 41.7001 81.2536 42.7787C80.3761 44.5728 79.9748 46.666 79.6324 48.6257C79.6056 51.2635 79.2471 52.7907 78.0753 55.1829C78.1181 53.8159 78.0914 52.4436 78.086 51.0766C76.8608 50.7829 75.6408 50.4893 74.4156 50.1902C75.4108 48.5509 76.513 47.1412 77.8399 45.7636C79.1883 44.3699 80.1835 42.7253 81.4141 41.2462C82.4253 39.9433 84.4265 39.7618 85.9353 39.404Z" fill="#7882B7"/>
<path d="M90.6224 39.9807C92.5165 40.2316 94.2073 41.7214 96.0907 41.9777C97.3534 41.6787 98.4877 40.6588 99.5846 39.9807C100.692 41.7908 102.126 43.2646 103.624 44.7383C105.545 46.6553 106.439 49.0261 107.182 51.5785L107.327 52.5771C108.611 52.6411 110.045 52.8974 111.302 52.5824C112.929 51.8402 114.224 50.3664 115.856 49.6669C116.846 49.4159 118.028 49.8378 119.018 50.0087C119.751 50.1261 120.398 50.2917 121.094 49.9499C122.715 49.2344 124.208 48.2145 125.797 47.4242C127.322 46.9971 128.954 46.7087 130.543 46.7888C131.859 46.8315 132.892 47.6218 133.989 48.2786C132.346 49.7524 131.26 51.6533 129.767 53.2339C128.108 54.195 126.321 54.761 124.845 56.0532C126.006 57.0304 127.274 58.2372 128.692 58.8085C129.73 59.1823 131.041 58.9207 132.116 58.8406C132.014 60.7735 131.64 61.9643 130.602 63.5876C129.896 62.9308 129.189 62.274 128.472 61.6226C125.572 62.3968 122.897 61.756 119.986 61.6546C119.285 59.4973 117.595 57.0197 114.994 57.6017C112.581 58.0823 112.993 60.4478 112.019 62.2153C110.04 63.1177 107.76 63.3206 105.706 64.0681C105.476 66.5511 104.636 68.9914 104.502 71.4637C104.962 72.7185 106.364 73.7491 107.215 74.7636C106.225 75.0359 105.262 75.2122 104.234 75.1107C102.169 74.9345 100.243 75.666 98.1667 75.3243C95.7001 74.9452 93.4208 75.5112 91.0344 76.0505C89.4132 74.0161 88.204 71.736 85.8069 70.5666C84.0412 69.6749 82.5698 68.5375 81.1519 67.1652C79.8036 67.9448 78.498 68.7831 77.2139 69.6695C77.2942 70.2462 77.3744 70.8282 77.4493 71.4103C78.7121 71.4263 79.9748 71.4423 81.2375 71.4477C80.8897 73.2365 80.8951 74.4966 81.489 76.232C78.8191 74.9238 76.1759 75.052 73.3027 74.8971C70.2421 74.9131 69.279 70.9671 67.1228 69.3438C65.4159 68.8312 63.2275 69.771 61.5635 70.1982C62.7032 68.4627 63.7412 67.4055 65.6407 66.5351C64.6776 65.7822 63.7305 64.8264 62.6176 64.3245C61.724 64.1963 60.7128 64.6235 59.846 64.7944C58.8133 64.2764 57.8021 63.7104 56.7694 63.2031L56.5019 63.0803C55.6619 64.9492 55.3729 66.8982 55.1001 68.9113C56.8871 67.9341 58.4762 66.7327 59.8246 65.1948C59.8192 66.9836 59.862 68.7724 59.7871 70.5613C60.3811 70.4438 60.9696 70.321 61.5635 70.1982C61.8525 70.8549 62.1414 71.5117 62.4357 72.1632C59.9316 72.6758 57.7807 73.4394 55.5495 74.6728C55.3248 73.8398 55.0786 73.0069 54.8486 72.1739C54.3242 72.6598 53.7945 73.1457 53.2648 73.6369C52.7404 73.0229 52.2214 72.3874 51.6382 71.8321C50.5574 70.7108 48.5189 70.6147 47.1438 71.1379C46.4696 71.8054 45.9345 72.6331 45.3888 73.4073C43.1522 72.0617 41.0816 70.8763 39.7867 68.5001C36.2982 67.7579 33.1306 66.5618 29.6153 68.0836C28.4489 68.5215 28.2616 69.5841 27.7587 70.5826C28.8769 70.5185 29.9899 70.4491 31.1081 70.3797C30.5356 70.887 29.9738 71.3889 29.3745 71.8641C28.5185 72.3127 27.6356 72.6971 26.7474 73.0816C26.4531 71.6826 25.9555 69.9739 26.3247 68.5695C26.7367 67.5443 27.7694 66.722 28.5238 65.9371C29.7919 64.7249 30.9048 63.3633 32.1836 62.1725C33.2698 61.1633 34.9766 60.8964 36.3463 60.3036C36.7369 60.891 37.1329 61.5051 37.5984 62.0337C38.5026 62.2793 39.562 62.0925 40.4877 62.0444C40.9639 63.7157 41.0013 65.0774 40.7338 66.7967C41.6862 66.156 42.6439 65.5312 43.6017 64.8958C44.2331 65.5099 44.8537 66.1293 45.56 66.6579C47.331 65.6327 47.529 64.0788 47.9356 62.2526C46.7371 62.2473 45.5439 62.2473 44.3508 62.2313C45.1319 61.409 45.9238 60.4104 46.919 59.8498C48.3316 59.8017 49.7709 60.2022 51.1941 60.1541C52.2589 60.058 53.5644 59.2197 53.0454 57.9915C52.291 56.1547 50.9855 54.1897 49.2733 53.1271C47.834 52.7746 46.2021 53.079 44.7253 53.063C44.11 52.3795 43.5161 51.5785 42.7563 51.0552C41.6273 50.5907 40.3164 50.5053 39.1179 50.265L38.6792 50.1742C35.9022 48.3373 33.7781 47.5524 30.4768 46.9864C31.2526 45.7262 31.7127 44.3112 33.2537 43.8253C36.1698 42.7893 39.7332 42.5437 42.3764 44.4233C43.912 45.4752 45.2069 46.2388 47.1224 46.2975C46.3144 45.6141 45.4958 44.9466 44.629 44.3379C47.224 45.267 49.605 46.4631 52.0502 47.7179C56.9299 49.9179 62.12 51.4824 67.0478 53.5756C68.7547 54.3499 69.477 56.0212 70.8842 57.0037C73.1368 58.1517 75.6783 58.4134 78.177 58.2479C78.1663 59.2197 78.1449 60.1969 78.1824 61.1687C78.4017 62.0017 78.4874 63.5342 79.5789 63.657C81.1519 64.0628 82.8748 64.0575 84.4853 64.1536C84.0573 63.2298 83.6292 62.306 83.1958 61.3823C85.8551 61.0832 88.4019 60.8269 91.0077 61.6546C92.447 62.1512 93.6455 61.8041 95.0527 61.425C96.8719 60.9604 98.782 60.8216 100.649 60.7629C102.196 60.6667 103.721 61.6386 105.09 62.258C105.465 61.4517 106.374 60.4318 106.064 59.5187C105.411 56.977 104.111 54.5741 103.089 52.1552C102.024 52.4649 100.906 52.8334 99.7986 52.9295C98.8569 51.8135 98.2095 50.4198 97.2785 49.2931C94.9029 48.7164 92.3988 50.9805 90.4244 52.0965C90.1997 51.5412 89.9643 51.0072 89.7021 50.4732C89.3436 50.6921 88.9905 50.9217 88.632 51.146C86.0851 50.6868 84.6137 50.8417 82.2006 51.7441C81.3499 50.6975 80.5099 49.6509 79.6324 48.6257C79.9748 46.666 80.3761 44.5728 81.2536 42.7787C82.0883 41.7 83.6132 41.1073 84.7368 40.3544C86.9573 41.4811 88.3966 40.1088 90.6224 39.9807Z" fill="#2D59B0"/>
<path d="M29.9578 42.0791C33.2056 42.1539 36.4587 42.3621 39.7065 42.5116C41.5845 42.6024 43.0238 43.4781 44.629 44.3378C45.4958 44.9465 46.3144 45.614 47.1224 46.2975C45.2069 46.2387 43.912 45.4752 42.3764 44.4232C39.7333 42.5437 36.1698 42.7893 33.2537 43.8252C31.7128 44.3111 31.2526 45.7261 30.4768 46.9863C33.7781 47.5523 35.9023 48.3373 38.6792 50.1741C37.8392 50.1474 37.0045 50.1528 36.1644 50.1421C35.3511 52.7052 34.7305 56.491 31.6753 57.276C30.0862 56.9769 28.6201 55.5993 27.3628 54.6488C28.6041 52.4809 30.1451 50.5853 31.8679 48.7805C30.9476 48.5135 29.4709 48.5402 28.8342 47.7552C28.679 45.8756 29.412 43.8572 29.9578 42.0791Z" fill="#7882B7"/>
<path d="M50.7118 42.282C50.4229 42.8055 50.1394 43.3289 49.8613 43.8524C49.3157 43.4518 48.7702 43.0512 48.2246 42.6506C49.0536 42.5277 49.8827 42.4102 50.7118 42.282Z" fill="#112159"/>
<path d="M151.961 42.1432C153.192 42.0417 153.706 43.7558 154.273 44.5834C152.223 45.032 150.629 44.9145 148.617 44.3431C149.607 43.2271 150.287 42.1111 151.961 42.1432Z" fill="#F8FBFB"/>
<path d="M138.735 43.1365C139.195 43.2593 139.655 43.3981 140.11 43.5476C140.495 43.6918 140.886 43.8413 141.271 43.9962C144.412 46.0199 147.863 45.4966 151.153 46.8903C151.217 47.5951 151.292 48.3 151.367 49.0048C150.383 48.7218 149.398 48.4388 148.408 48.1878C147.568 48.3908 146.846 48.6684 145.995 48.3641C143.716 47.6592 141.447 47.0558 139.077 46.7568C138.943 45.55 138.815 44.3486 138.735 43.1365Z" fill="#F8FBFB"/>
<path d="M170.051 43.5262C171.427 45.6621 172.342 47.9742 173.305 50.3077C172.342 51.2101 171.79 52.2781 171.33 53.4902C173.112 54.3338 174.899 55.4499 176.804 55.9625C177.697 56.2562 178.746 55.3751 179.543 55.044C178.291 53.1538 176.825 51.7334 174.83 50.6388C176.563 51.114 178.441 51.8829 179.388 53.5062C179.806 54.6062 179.613 55.9838 179.608 57.1479C177.285 57.1479 175.017 56.8328 172.721 56.5338C170.169 56.16 167.435 57.5323 165.022 58.2959C164.792 57.3455 164.562 56.395 164.342 55.4392C163.203 55.1722 162.063 54.8838 160.939 54.5635C160.463 54.9212 159.987 55.279 159.506 55.6367C159.217 54.713 158.906 53.7785 158.708 52.8334C158.328 51.7654 159.399 50.7242 159.875 49.8378C159.393 49.2504 158.917 48.6631 158.435 48.0757C159.254 47.6485 160.078 47.216 160.902 46.7888C161.801 48.4762 162.293 50.2703 162.86 52.0805C163.866 53.346 165.145 54.5688 166.729 53.3941C168.837 51.3009 167.505 48.5723 167.82 46.0146C168.109 45.016 169.297 44.2044 170.051 43.5262Z" fill="#7882B7"/>
<path d="M185.723 44.0655C187.098 44.0655 186.997 45.1709 187.51 46.1374C186.349 46.0145 185.231 45.9291 184.145 45.4806C184.455 44.6316 184.61 43.8199 185.723 44.0655Z" fill="#7882B7"/>
<path d="M192.92 43.9481C193.273 44.6903 193.578 45.4593 193.947 46.1961C194.541 47.6058 196.28 48.3481 197.302 49.5121C198.843 51.2048 199.528 53.88 200.239 56.0159C199.603 56.0426 198.966 56.0907 198.335 56.1708C198.003 56.4911 197.676 56.8115 197.355 57.1319C197.141 56.8489 196.927 56.5659 196.719 56.2775C197.147 55.1989 197.569 54.115 197.992 53.031C196.355 51.1567 194.926 50.1208 192.604 49.1971C192.904 50.2864 193.214 51.3703 193.54 52.449C192.074 51.4771 190.485 50.6548 189.105 49.5815C188.645 49.2825 188.479 48.4922 188.746 48.0277C189.693 46.2228 190.86 44.5462 192.92 43.9481Z" fill="#2D59B0"/>
<path d="M178.291 45.7422C177.569 46.4043 176.836 47.0557 176.098 47.7018C175.563 47.029 175.028 46.3616 174.557 45.6354C175.846 45.1601 176.997 45.5232 178.291 45.7422Z" fill="#7882B7"/>
<path d="M190.646 46.6767C191.026 47.3335 191.416 48.0116 191.673 48.7271C191.395 49.2718 191.079 49.7951 190.726 50.2917C190.025 49.7791 189.346 49.2344 188.682 48.6791C189.287 47.9529 189.956 47.3121 190.646 46.6767Z" fill="#7882B7"/>
<path d="M52.0503 47.718C54.5864 48.3747 57.1226 48.85 59.5464 49.8912C62.6765 51.2368 65.9029 52.3208 69.0436 53.6237C72.0828 54.9373 74.9025 54.478 77.4708 56.8062L77.733 57.1799C78.1021 56.5766 78.4767 55.9732 78.8512 55.3698C79.5843 55.6902 81.8261 55.5727 81.4355 56.7207C80.5955 58.3333 79.2686 59.7163 78.1824 61.1687C78.1449 60.1969 78.1663 59.2197 78.177 58.2479C75.6783 58.4134 73.1368 58.1518 70.8842 57.0037C69.477 56.0212 68.7547 54.3499 67.0479 53.5756C62.12 51.4825 56.93 49.9179 52.0503 47.718Z" fill="#7882B7"/>
<path d="M138.472 47.6805C140.393 48.0383 142.309 48.4548 144.246 48.7485C144.058 49.6883 143.877 50.6227 143.695 51.5625C144.829 51.0606 146.022 50.3237 147.258 50.1261C148.703 50.0033 150.26 50.5213 151.624 50.9378C152.566 51.4557 153.465 52.0431 154.374 52.6251C153.326 53.8693 152.298 54.8892 150.693 55.3804C148.751 56.0372 147.44 56.7741 145.995 58.2425C144.765 56.7527 143.47 55.3537 142.041 54.0562C142.79 53.613 143.545 53.1644 144.299 52.7266C141.763 52.0004 139.778 50.7776 137.777 49.0956C138.007 48.6257 138.242 48.1558 138.472 47.6805Z" fill="#2D59B0"/>
<path d="M241.171 48.2519C240.93 49.1917 240.695 50.1315 240.454 51.0659C243.397 52.8174 246.292 52.8387 249.609 52.4703C249.598 53.3994 249.593 54.3232 249.534 55.2469C247.854 56.4324 246.259 57.559 244.301 58.2585C243.333 56.7474 242.236 55.5139 240.898 54.3178C240.064 55.3644 239.282 56.5605 238.255 57.4255C237.431 57.6765 236.537 57.7459 235.687 57.8634C234.611 55.8503 233.761 53.7411 232.776 51.6853C233.611 51.6266 234.445 51.5572 235.275 51.4931C235.762 50.4198 236.174 49.0101 237.062 48.2038C238.159 47.5043 239.951 48.1077 241.171 48.2519Z" fill="#2D59B0"/>
<path d="M221.759 49.1596C221.288 51.1193 221.663 53.693 220.898 55.4444C219.063 56.3202 217.206 56.9716 215.542 58.1837C214.087 59.3157 211.791 58.6002 210.181 59.2463C208.303 60.6293 207.206 63.0749 205.322 64.4526C204.584 64.5647 203.888 64.303 203.311 63.8545C202.604 62.6157 202.513 60.9871 202.192 59.6148C200.983 61.0618 200.031 62.6264 199.196 64.3084C198.206 63.1657 197.248 62.0016 196.312 60.8215C195.798 61.3448 195.279 61.8735 194.766 62.4021C194.718 61.8254 194.659 61.2541 194.605 60.6774C195.825 59.8818 197.05 59.0968 198.27 58.2959C198.912 59.0488 199.592 59.7643 200.277 60.4798C200.55 60.2235 200.823 59.9725 201.09 59.7109C200.914 58.9206 200.865 58.109 200.651 57.324C201.491 58.1837 202.364 59.006 203.23 59.8337C204.68 58.6643 206.457 57.5109 207.5 55.9517C208.099 54.7716 208.078 53.2338 208.26 51.9362C205.895 50.9164 203.514 49.9605 201.186 48.8606C204.761 49.0528 208.303 50.0033 211.866 49.9872C215.504 49.9659 218.073 47.9208 221.759 49.1596Z" fill="#7882B7"/>
<path d="M79.6324 48.6257C80.5099 49.651 81.3499 50.6975 82.2007 51.7441C84.6138 50.8417 86.0852 50.6869 88.632 51.1461C88.616 53.266 88.5357 55.1669 89.7503 57.0251C90.0927 55.3912 90.371 53.7625 90.4245 52.0966C92.3988 50.9806 94.9029 48.7165 97.2785 49.2932C98.2095 50.4199 98.8569 51.8135 99.7986 52.9295C100.906 52.8334 102.024 52.465 103.089 52.1553C104.111 54.5742 105.411 56.9771 106.064 59.5188C106.374 60.4319 105.465 61.4517 105.09 62.258C103.721 61.6386 102.196 60.6668 100.649 60.7629C98.782 60.8217 96.8719 60.9605 95.0527 61.4251C93.6455 61.8042 92.447 62.1513 91.0077 61.6547C88.402 60.827 85.8551 61.0833 83.1959 61.3823C83.6293 62.3061 84.0573 63.2299 84.4853 64.1537C82.8748 64.0575 81.152 64.0629 79.5789 63.6571C78.4874 63.5342 78.4018 62.0017 78.1824 61.1687C79.2686 59.7163 80.5955 58.3334 81.4355 56.7208C81.8261 55.5727 79.5842 55.6902 78.8512 55.3698C78.4767 55.9732 78.1021 56.5766 77.7329 57.18L77.4708 56.8062C77.6634 56.2615 77.8721 55.7222 78.0754 55.1829C79.2471 52.7907 79.6056 51.2636 79.6324 48.6257Z" fill="#112159"/>
<path d="M39.118 50.265C40.3165 50.5052 41.6274 50.5907 42.7563 51.0552C43.5161 51.5785 44.11 52.3795 44.7253 53.063C43.5054 54.2751 42.5477 55.5299 41.6702 56.9983C40.7392 58.8405 38.0906 59.4386 36.3464 60.3036C34.9766 60.8963 33.2698 61.1633 32.1836 62.1725C30.9048 63.3633 29.7919 64.7249 28.5238 65.937C27.7694 66.722 26.7368 67.5443 26.3248 68.5695C25.9556 69.9739 26.4532 71.6826 26.7475 73.0816C27.6357 72.6971 28.5185 72.3127 29.3746 71.8641C30.5036 73.701 30.8406 74.502 30.3751 76.6485C29.4816 75.901 28.5988 75.132 27.7213 74.3631C27.6143 75.6607 27.5072 76.9582 27.3842 78.2558C26.1535 77.882 24.8962 77.599 23.6762 77.1932C24.0722 77.1184 24.4628 77.0437 24.8534 76.9636C24.8641 76.0291 24.8748 75.1 24.8855 74.1656C25.2761 74.1709 25.6613 74.1816 26.0519 74.1869C25.4419 72.7826 24.6447 71.2074 24.5591 69.6695C24.543 68.1317 25.0032 66.5404 25.3563 65.0506C27.2237 64.2764 29.0161 63.39 30.5785 62.0818C32.8257 60.2235 35.2388 58.6109 37.379 56.6192C38.9842 55.076 40.9264 54.5474 42.9704 53.8372C41.7879 52.5343 40.5519 51.2955 39.118 50.265Z" fill="#7882B7"/>
<path d="M89.7021 50.4732C89.9643 51.0072 90.1997 51.5411 90.4245 52.0965C90.371 53.7625 90.0927 55.3911 89.7503 57.025C88.5357 55.1668 88.616 53.2659 88.632 51.146C88.9905 50.9217 89.3436 50.6921 89.7021 50.4732Z" fill="#7882B7"/>
<path d="M173.305 50.3077C173.818 50.3985 174.327 50.5106 174.83 50.6387C176.825 51.7334 178.291 53.1538 179.543 55.044C178.746 55.3751 177.697 56.2561 176.804 55.9625C174.899 55.4498 173.112 54.3338 171.33 53.4902C171.79 52.278 172.342 51.2101 173.305 50.3077Z" fill="#F8FBFB"/>
<path d="M219.817 50.612C220.277 51.8562 220.796 53.1804 220.946 54.5047C219.806 55.5833 217.934 55.6367 216.452 55.9197C217.57 54.1469 218.651 52.3527 219.817 50.612Z" fill="#F8FBFB"/>
<path d="M211.706 51.3864C213.284 52.497 214.894 53.314 216.671 54.0562C213.937 55.4766 210.946 54.9106 208.308 56.4805C209.073 54.4033 209.667 52.5558 211.706 51.3864Z" fill="#112159"/>
<path d="M49.2733 53.1271C50.9855 54.1897 52.291 56.1547 53.0455 57.9915C53.5645 59.2197 52.2589 60.058 51.1942 60.1541C49.7709 60.2022 48.3316 59.8017 46.9191 59.8498C45.9239 60.4104 45.132 61.409 44.3508 62.2313C45.544 62.2473 46.7372 62.2473 47.9357 62.2527C47.529 64.0788 47.3311 65.6327 45.56 66.6579C44.8538 66.1293 44.2331 65.5099 43.6017 64.8958C42.644 65.5312 41.6862 66.156 40.7338 66.7968C41.0014 65.0774 40.9639 63.7157 40.4877 62.0444C39.5621 62.0925 38.5027 62.2793 37.5984 62.0337C37.1329 61.5051 36.737 60.891 36.3464 60.3036C38.0907 59.4386 40.7392 58.8406 41.6702 56.9984C42.5477 55.5299 43.5054 54.2751 44.7253 53.063C46.2021 53.079 47.834 52.7746 49.2733 53.1271Z" fill="#112159"/>
<path d="M59.6694 55.0493C61.3656 54.51 62.7888 55.0547 64.3512 55.6794C62.5801 56.7313 61.0445 58.1197 59.2895 59.1823C58.3693 59.1289 57.4436 58.7498 56.5715 58.4828C57.3848 57.2173 58.0643 55.4445 59.6694 55.0493Z" fill="#112159"/>
<path d="M249.534 55.2469C247.929 56.8969 246.201 58.376 244.783 60.2075C244.125 61.1366 243.263 61.3769 242.204 61.6172C242.188 61.2861 242.172 60.9551 242.156 60.6293C241.273 59.6201 240.668 59.0114 240.829 57.6071C241.99 57.8473 243.124 58.093 244.301 58.2585C246.259 57.559 247.854 56.4323 249.534 55.2469Z" fill="#7882B7"/>
<path d="M198.334 56.1707C198.966 56.0906 199.603 56.0425 200.239 56.0158C200.373 56.4537 200.512 56.8862 200.651 57.324C200.865 58.109 200.913 58.9206 201.09 59.7109C200.823 59.9725 200.55 60.2235 200.277 60.4798C199.592 59.7643 198.912 59.0488 198.27 58.2959C197.96 57.9114 197.655 57.5269 197.355 57.1318C197.676 56.8114 198.003 56.491 198.334 56.1707Z" fill="#F8FBFB"/>
<path d="M147.681 58.5201C149.008 58.9794 150.335 59.7216 151.72 59.9619C152.823 59.9619 153.952 59.524 155.011 59.241C155.947 60.8536 157.205 61.5798 158.831 62.3968C160.522 63.2031 161.26 64.6501 162.143 66.1933C161.646 67.0744 161.063 68.0462 160.875 69.0501C161.239 70.353 162.143 71.5437 162.903 72.6437C162.561 72.5423 162.218 72.4355 161.87 72.3394C160.709 73.749 159.746 74.5126 158.029 75.1801C157.676 74.1816 156.969 73.0282 157.226 71.9495C157.483 70.4811 157.997 69.0341 158.446 67.6084C157.467 67.7525 156.482 67.8914 155.503 68.0302C153.866 65.9904 151.993 64.2176 150.051 62.4715C148.826 61.4036 148.162 60.042 147.681 58.5201Z" fill="#2D59B0"/>
<path d="M228.538 59.7322C230.695 60.5225 232.578 61.724 234.948 61.7079C237.383 61.6759 239.759 61.3128 242.204 61.6172C240.112 62.071 238.127 62.29 236.109 63.0589C234.654 63.6142 233.226 64.2443 231.765 64.789C231.535 63.8598 231.246 62.9468 231.016 62.0176C229.844 62.0871 228.512 62.0016 227.409 62.4181C225.703 63.3366 224.381 64.821 222.61 65.6807C217.821 68.1103 212.134 68.2865 206.853 69.8831C205.697 73.4233 205.349 77.5883 203.444 80.7814C204.118 77.3213 205.071 73.9573 206.194 70.6146C206.526 69.8937 206.574 69.1835 207.479 69.0073C210.882 68.0729 214.616 68.1156 217.966 67.0049C221.979 65.2642 225.339 62.6637 228.538 59.7322Z" fill="#7882B7"/>
<path d="M56.5019 63.0803L56.7694 63.2031C57.8021 63.7104 58.8133 64.2764 59.846 64.7944L59.8246 65.1948C58.4762 66.7327 56.8871 67.9341 55.1 68.9113C55.3729 66.8982 55.6618 64.9492 56.5019 63.0803Z" fill="#112159"/>
<path d="M149.2 63.5662C150.378 64.1856 151.298 65.4084 152.207 66.3589C151.731 66.9303 151.244 67.4909 150.768 68.0623C149.746 67.5977 148.569 67.1599 147.729 66.407C147.007 65.7609 147.205 64.5487 147.124 63.6677C147.804 63.5983 148.516 63.4968 149.2 63.5662Z" fill="#2D59B0"/>
<path d="M62.6176 64.3245C63.7305 64.8264 64.6776 65.7822 65.6407 66.5351C63.7412 67.4055 62.7032 68.4627 61.5636 70.1982C60.9696 70.321 60.3811 70.4438 59.7872 70.5613C59.8621 68.7725 59.8193 66.9836 59.8246 65.1948L59.846 64.7944C60.7128 64.6235 61.7241 64.1963 62.6176 64.3245Z" fill="#7882B7"/>
<path d="M162.143 66.1934C163.262 66.6366 164.364 67.1171 165.471 67.5817C165.322 69.6054 165.001 71.5331 164.187 73.402C163.759 73.1457 163.331 72.8947 162.903 72.6437C162.143 71.5438 161.239 70.353 160.875 69.0501C161.063 68.0462 161.646 67.0744 162.143 66.1934Z" fill="#7882B7"/>
<path d="M128.617 68.388C130.286 68.9219 132.03 68.8525 133.705 69.2583C135.08 69.8884 136.231 71.1326 137.338 72.1525C136.027 74.4592 136.086 76.5684 136.445 79.1368C137.274 79.0728 138.157 79.0728 138.965 78.8592C140.163 78.0101 141.068 76.6859 142.015 75.5806C144.064 77.5136 145.573 79.4626 146.953 81.9242C146.027 81.9882 145.107 81.9936 144.176 82.0043C142.849 84.6795 140.276 86.0144 139.585 88.8765C138.933 89.277 138.285 89.6828 137.638 90.0833C137.761 89.058 137.959 87.9741 137.863 86.9382C137.408 86.3989 136.771 85.8756 136.022 85.9557C134.438 86.4309 132.951 87.4561 131.346 87.8726C130.693 88.0008 130.185 87.9794 129.74 87.4348C128.499 86.1105 127.921 84.2042 127.37 82.5169C129.505 82.6557 131.281 83.6649 133.304 84.1989C134.374 83.9639 135.466 82.8373 135.043 81.6679C134.668 79.6388 133.24 78.8271 131.602 77.85C132.785 77.0757 133.941 76.2534 135.08 75.415C134.834 74.8437 134.583 74.2723 134.331 73.701C132.127 73.9413 130.827 73.7918 128.852 72.7826C127.969 74.3364 127.322 75.7141 125.406 76.1412C123.908 76.7179 122.865 75.4204 122.132 74.3151C121.105 73.0282 122.635 71.0472 123.111 69.7549C124.374 70.7428 125.84 72.4835 127.557 72.35C127.584 70.8282 126.771 69.8083 126.049 68.5642C126.947 68.3185 127.696 68.0783 128.617 68.388Z" fill="#2D59B0"/>
<path d="M183.053 68.4468C184.872 68.7832 186.258 69.7764 187.746 70.7909C189.03 71.688 190.565 72.2433 191.78 73.2258C192.379 74.0749 192.213 74.5714 191.512 75.2763C189.094 77.284 186.21 78.6723 182.989 77.9995C184.305 77.8287 185.836 77.8821 187.061 77.3374C188.484 76.4564 188.479 74.0748 188.677 72.6118C187.756 72.5423 186.574 72.2967 185.696 72.6758C184.466 73.2205 183.326 74.0588 182.203 74.8011C183.032 73.9894 183.856 73.1831 184.685 72.3768C184.07 71.0899 183.487 69.8031 183.053 68.4468Z" fill="#112159"/>
<path d="M177.14 69.3065C177.119 70.3907 177.076 71.4803 177.033 72.5646C176.568 72.586 176.103 72.5806 175.648 72.5539C175.9 71.0584 175.402 69.9367 177.14 69.3065Z" fill="#7882B7"/>
<path d="M33.9279 71.1754C35.4207 72.2273 36.7262 73.3166 38.4063 74.0748C39.9526 74.8491 41.6327 75.2389 42.5798 76.8034C43.6499 78.635 44.2277 80.7441 45.1159 82.6664C42.2159 82.5596 39.4764 82.8106 36.6299 83.3766C34.1633 83.8839 31.6165 82.9975 29.2194 83.5582C27.6356 84.1829 26.5762 86.2387 25.581 87.5523C23.5799 87.296 21.6323 86.8635 19.6847 86.3455C16.8008 85.5392 13.8794 86.1319 10.7867 86.1319C8.99429 86.2761 7.31422 85.929 5.82141 87.0877C4.43561 88.0916 2.88395 88.8819 1.52491 89.9125C0.984502 91.8775 1.9155 92.7105 3.39226 93.7517C3.41366 94.7823 3.49392 95.7701 3.95942 96.7206C4.92787 98.408 5.90702 100.101 6.97713 101.724C7.48008 102.391 7.95628 103.203 8.86053 103.315C10.6904 103.609 12.4989 103.817 14.2432 104.485C13.3657 105.104 12.3598 105.643 11.5947 106.396C11.0222 107.154 11.0008 108.361 10.8456 109.269C11.6963 109.904 12.5096 110.412 12.9163 111.426C13.8954 113.717 15.7253 114.961 17.2128 116.894C17.4107 117.14 17.6087 117.391 17.8067 117.642C18.4969 117.738 19.1925 117.829 19.8827 117.919C19.4332 118.699 18.9624 119.473 18.5504 120.269C18.4273 122.106 18.5611 123.91 18.7163 125.737C21.8998 125.55 24.4521 126.153 27.3788 127.275C27.5768 126.073 27.7855 124.872 28.0369 123.681C28.77 124.968 29.3104 126.244 29.7384 127.659C27.9834 127.798 26.2284 127.878 24.4628 127.835C20.6264 127.024 16.7098 127.045 12.8949 126.142C14.0613 124.455 15.4631 122.944 16.6242 121.257C17.3947 120.29 16.9078 118.624 16.8436 117.476C15.7788 117.546 14.5321 117.823 13.4941 117.519C12.4401 116.408 11.8889 114.806 10.9044 113.658C9.43839 112.58 7.33027 112.435 5.79466 111.41C4.78875 110.123 5.08838 107.854 5.03488 106.3C6.31366 105.873 7.5871 105.424 8.84448 104.954C7.89743 103.86 7.03064 102.573 5.65554 101.991C4.39816 101.35 2.75019 101.024 1.69078 100.079C0.38524 98.4613 0.0107011 96.0638 0 94.0347C0.048155 92.3687 -0.0695575 90.4144 0.57251 88.8552C2.01181 87.9528 3.48856 87.2426 4.72454 86.0358C6.06218 84.6315 7.84392 85.2295 9.5882 85.1815C12.5471 85.4378 15.3133 84.53 18.2347 84.9679C20.2733 85.2135 22.5687 85.6727 24.6019 85.3577C25.6078 85.1814 26.5013 84.2577 27.2932 83.6543C26.9775 83.2378 26.6672 82.8266 26.3515 82.4101C27.3521 82.33 28.3312 82.1966 29.3211 82.0684C28.6255 81.2087 27.9299 80.3437 27.2343 79.4786C27.6945 79.3024 28.1546 79.1155 28.6041 78.9233C29.4709 79.4519 30.327 80.0019 31.1724 80.5573C32.8257 78.8966 34.5379 77.0971 35.1211 74.7583C35.089 73.5569 34.3238 72.3074 33.9279 71.1754Z" fill="#7882B7"/>
<path d="M188.677 72.6117C188.479 74.0748 188.484 76.4563 187.061 77.3373C185.836 77.882 184.305 77.8286 182.989 77.9995C182.732 76.9315 182.47 75.8636 182.203 74.801C183.326 74.0588 184.466 73.2204 185.696 72.6758C186.574 72.2966 187.756 72.5423 188.677 72.6117Z" fill="#F8FBFB"/>
<path d="M22.697 74.1708C23.4301 74.1441 24.1577 74.1495 24.8854 74.1655C24.8747 75.1 24.864 76.0291 24.8533 76.9635C24.4627 77.0436 24.0721 77.1184 23.6762 77.1931C22.911 76.7766 22.1727 76.3174 21.4343 75.8582C21.8463 75.2869 22.2583 74.7208 22.697 74.1708Z" fill="#112159"/>
<path d="M170.458 74.7369C171.255 75.3456 171.876 76.232 172.486 77.017C173.198 78.1543 173.877 79.3131 174.583 80.4504C171.988 82.7679 168.794 83.996 166.451 86.6445C164.91 87.3173 163.058 88.1877 161.341 88.0862C158.494 87.3013 156.322 84.2096 153.593 83.1043C152.705 82.7679 151.747 82.5703 150.827 82.3407C154.032 79.7135 157.595 80.2849 161.202 78.7524C162.058 78.416 162.908 78.0315 163.749 77.6577C163.684 76.8621 163.641 76.0665 163.561 75.2762C165.83 75.0413 168.179 74.5821 170.458 74.7369Z" fill="#F8FBFB"/>
<path d="M163.561 75.2762C163.642 76.0665 163.684 76.8621 163.749 77.6577C162.909 78.0315 162.058 78.4159 161.202 78.7523C157.595 80.2848 154.032 79.7135 150.827 82.3406C151.747 82.5702 152.705 82.7678 153.593 83.1042C156.322 84.2095 158.494 87.3012 161.341 88.0862C163.058 88.1876 164.91 87.3173 166.451 86.6445C165.033 87.5362 163.481 88.9138 161.689 88.6575C157.965 88.1449 154.99 86.0678 152.047 83.8945C151.33 84.2896 150.618 84.6688 149.923 85.0959C149.559 84.3591 149.19 83.6275 148.799 82.9066C147.451 83.195 146.204 83.6756 145.166 84.6047C143.309 86.2386 141.533 87.942 139.537 89.4158L139.585 88.8765C140.276 86.0144 142.849 84.6794 144.176 82.0042C145.107 81.9936 146.027 81.9882 146.953 81.9241C147.879 81.6144 148.879 81.2407 149.644 80.6319C150.313 79.9484 150.65 78.9179 151.073 78.0635C152.635 78.715 154.069 79.3077 155.814 78.9339C158.5 78.3572 161.047 76.3815 163.561 75.2762Z" fill="#7882B7"/>
<path d="M194.878 77.0063C196.515 78.1757 197.826 79.9058 199.121 81.4223C197.874 82.6611 196.767 83.7504 194.867 83.6543C193.091 83.0455 191.497 81.7907 189.918 80.7922C190.555 79.6495 191.159 78.416 191.983 77.3908C192.567 76.4563 194.043 76.4296 194.878 77.0063Z" fill="#F8FBFB"/>
<path d="M172.486 77.017C174.364 79.1315 175.611 81.5931 177.692 83.5101C178.735 84.4605 179.356 85.4964 179.886 86.794C177.788 85.9877 176.568 84.4712 175.3 82.7091C173.775 83.5581 172.277 84.5139 170.619 85.0639C169.201 85.5338 167.783 85.945 166.451 86.6445C168.794 83.996 171.988 82.7679 174.583 80.4504C173.877 79.3131 173.198 78.1543 172.486 77.017Z" fill="#7882B7"/>
<path d="M80.6918 78.448C81.5693 79.7028 82.3291 81.0378 83.0247 82.4047C81.3339 81.8334 80.0979 81.1499 78.7656 79.9698C79.4023 79.4519 80.0337 78.9339 80.6918 78.448Z" fill="#7882B7"/>
<path d="M109.408 78.4533C109.419 81.1712 110.644 83.3071 111.356 85.8702C109.975 86.1745 108.6 86.4736 107.22 86.7673C107.391 87.3172 107.557 87.8672 107.728 88.4226C110.955 88.3104 113.742 87.4347 116.621 86.0784C117.916 87.6109 119.194 88.7376 120.885 89.8216C121.65 92.3152 123.384 93.8798 125.225 95.6098C125.915 95.2147 126.61 94.8302 127.301 94.4404C127.258 95.2948 127.21 96.1438 127.156 96.9928C125.588 97.6817 124.631 98.4666 123.55 99.7695C124.358 100.416 125.166 101.062 125.963 101.729C125.615 103.128 125.31 104.522 124.818 105.883C124.823 104.96 124.77 104.041 124.727 103.117C122.71 103.214 121.383 103.513 119.724 104.671C119.74 103.459 119.735 102.247 119.713 101.035C117.803 100.608 115.957 99.9724 114.063 99.5025C112.485 99.1074 110.698 99.9564 109.168 99.5452C107.38 98.8137 106.139 96.6938 104.62 95.5618C103.137 94.6914 101.067 94.638 99.9539 93.3244C98.7072 91.9415 97.3107 90.6065 96.2887 89.0527C95.8553 87.9153 96.3636 84.909 97.1127 83.9372C98.5895 82.9227 100.847 83.1202 102.458 82.3299C103.405 81.6037 104.052 80.4343 105.064 79.8043C106.439 79.1848 107.948 78.8324 109.408 78.4533Z" fill="#2D59B0"/>
<path d="M59.7443 78.6829C60.1724 79.6654 60.6004 80.6479 61.0927 81.5984C59.541 83.0615 58.3264 84.578 57.2724 86.4255C56.7534 87.2745 56.2451 88.1289 55.7314 88.9833C55.2606 88.524 54.763 88.0969 54.2386 87.7017C53.832 86.511 53.3023 85.427 52.6548 84.3537C53.42 83.8037 54.244 83.2751 54.8753 82.5809C55.7475 81.497 56.2879 80.1246 57.2082 79.0834C58.0322 78.8698 58.8989 78.7897 59.7443 78.6829Z" fill="#7882B7"/>
<path d="M27.2343 79.4786C27.9299 80.3436 28.6255 81.2087 29.3211 82.0683C28.3312 82.1965 27.3521 82.33 26.3515 82.4101C25.3723 82.2072 24.4146 81.9242 23.4568 81.6305C24.5109 80.4237 25.7469 79.9752 27.2343 79.4786Z" fill="#112159"/>
<path d="M61.0927 81.5984C61.7241 82.7624 62.6069 83.8891 63.0243 85.1493C63.0296 85.9182 62.6551 86.7032 62.4196 87.424C61.6759 87.3279 60.9322 87.2371 60.1831 87.141C59.204 86.9435 58.2409 86.6818 57.2724 86.4255C58.3265 84.578 59.541 83.0615 61.0927 81.5984Z" fill="#F8FBFB"/>
<path d="M45.1159 82.6664C46.4001 82.7946 47.3739 83.115 47.7644 84.4659C47.8394 85.8382 47.3417 87.2746 47.0582 88.6096C48.8613 88.0756 50.3809 87.3761 51.97 86.3776C52.7351 86.8101 53.4949 87.2372 54.2386 87.7018C54.763 88.0969 55.2606 88.5241 55.7314 88.9833C57.7914 91.2047 59.6213 93.6182 60.8894 96.3842C60.0814 96.5871 59.2574 96.8274 58.4281 96.9342C57.0049 96.3682 55.7903 95.1187 54.6453 94.1202C54.2975 95.0546 54.0514 96.3041 53.3023 97.0036C52.291 97.9915 51.1085 98.7978 50.0598 99.7429C49.086 99.5774 48.1122 99.3905 47.1491 99.1715C44.1261 96.6832 41.0441 94.6221 39.1233 91.0925C37.8285 92.7051 36.7209 94.3284 34.8963 95.3963C35.9344 95.9517 36.967 96.5177 38.005 97.0837C37.9034 99.038 37.6144 100.87 36.9991 102.728C36.25 102.146 35.0462 101.767 34.907 100.725C34.5165 98.958 34.2275 97.1798 33.7299 95.4391C32.5528 95.4124 31.3008 95.2896 30.1344 95.5031C28.2081 96.9395 27.2504 99.1235 24.864 100.186C23.0074 101.169 20.4605 99.6521 18.4755 99.823C17.7906 100.106 17.1592 100.555 16.5439 100.955C16.3513 100.789 16.1533 100.624 15.9554 100.469C15.0565 99.7429 14.1576 99.022 13.2159 98.3492C12.0227 99.7215 12.6113 100.934 12.8199 102.546C12.4079 102.546 12.0013 102.541 11.5893 102.541C12.012 99.9138 12.333 97.2706 12.6434 94.6221C11.5412 94.3818 9.96809 93.5755 8.92473 94.2376C7.2821 95.1187 5.72509 96.0852 3.95941 96.7206C3.49391 95.7701 3.41365 94.7823 3.39225 93.7517C1.9155 92.7105 0.984497 91.8775 1.5249 89.9125C2.88395 88.8819 4.43561 88.0916 5.8214 87.0877C7.31421 85.929 8.99429 86.2761 10.7867 86.1319C13.8793 86.1319 16.8008 85.5392 19.6847 86.3455C21.6323 86.8635 23.5799 87.296 25.581 87.5523C26.5762 86.2387 27.6356 84.1829 29.2194 83.5582C31.6165 82.9975 34.1633 83.8839 36.6299 83.3766C39.4764 82.8106 42.2159 82.5597 45.1159 82.6664Z" fill="#2D59B0"/>
<path d="M148.799 82.9067C149.19 83.6275 149.559 84.3591 149.923 85.096C148.237 86.276 146.744 87.6911 145.706 89.4745C144.658 91.2687 143.909 93.223 142.86 95.0225C142.304 94.8356 141.742 94.6541 141.175 94.4779C139.992 92.8119 139.286 91.5517 139.537 89.4158C141.533 87.942 143.309 86.2387 145.166 84.6047C146.204 83.6756 147.451 83.195 148.799 82.9067Z" fill="#F8FBFB"/>
<path d="M151.506 86.6445C152.4 87.5736 153.021 88.6896 153.818 89.6828C154.674 90.3075 155.835 90.5371 156.729 91.1352C157.67 92.358 157.863 94.1842 157.665 95.6686C157.28 97.7404 155.68 99.604 155.246 101.681C154.968 103.219 155.006 104.832 154.851 106.385C154.658 104.244 154.331 102.119 153.941 100.004C152.812 99.8443 151.683 99.6681 150.554 99.4812C150.993 97.9487 151.431 96.4162 151.87 94.8837C150.966 94.3764 150.062 93.8691 149.158 93.3672C150.008 91.1512 150.666 88.8658 151.506 86.6445Z" fill="#7882B7"/>
<path d="M60.1831 87.1411C60.9321 87.2372 61.6759 87.328 62.4196 87.4241C62.6604 87.9047 62.9065 88.3853 63.1473 88.8658C62.4571 89.0688 61.7615 89.2717 61.0766 89.4906C60.2526 89.7789 59.0862 90.0619 59.6641 91.194C60.365 91.7226 61.1622 92.1284 61.9327 92.5449C62.243 91.8347 62.5427 91.1192 62.8476 90.4037C63.2436 91.4503 63.5272 92.5556 63.8268 93.6289C63.3024 93.7517 62.7834 93.8905 62.2698 94.0507C61.9809 94.5847 61.7133 95.124 61.4458 95.6687C61.0017 93.6769 59.7711 92.2939 58.7652 90.6013C58.0375 89.2984 59.4714 88.0862 60.1831 87.1411Z" fill="#F8FBFB"/>
<path d="M78.3964 87.9581C79.1615 88.0221 79.8036 88.2464 80.4403 88.6789C83.7416 91.1352 85.6946 94.4832 87.273 98.205C85.5394 97.6443 84.3997 97.5909 82.6233 97.9594C82.3505 96.9074 82.0829 95.8555 81.8154 94.7983C81.0824 94.606 80.3494 94.4138 79.6056 94.2376C78.8458 92.8386 77.6634 91.4556 77.2621 89.9124C77.4761 89.1862 77.9149 88.5294 78.3964 87.9581Z" fill="#F8FBFB"/>
<path d="M170.447 88.2891C169.87 89.5546 169.383 91.0124 168.505 92.107C166.386 92.7585 164.626 91.8561 163.684 89.8857C165.91 89.1862 168.12 88.5241 170.447 88.2891Z" fill="#7882B7"/>
<path d="M61.0766 89.4906C61.6759 89.7789 62.2645 90.0833 62.8477 90.4037C62.5427 91.1192 62.2431 91.8347 61.9327 92.5449C61.1622 92.1284 60.365 91.7226 59.6641 91.194C59.0862 90.062 60.2526 89.7789 61.0766 89.4906Z" fill="#F8FBFB"/>
<path d="M178.457 90.1794C179.586 92.1871 179.062 95.1613 179.233 97.404C178.489 95.4977 178.334 93.5274 178.131 91.5196C176.97 93.1269 176.028 94.8089 175.739 96.806C176.017 94.3123 176.29 91.8187 176.552 89.325C177.344 89.4638 178.04 89.3517 178.457 90.1794Z" fill="#7882B7"/>
<path d="M13.8901 89.7735C14.9334 90.1206 15.1528 91.1459 15.5273 92.059C16.1319 93.8958 16.667 95.754 17.3251 97.5749C15.8858 97.97 14.5321 98.1462 13.034 98.0822C13.0554 96.822 13.157 95.4977 12.9644 94.2536C12.7129 92.8599 11.8676 91.4823 11.2308 90.2274C12.0869 90.0405 13.0072 89.7095 13.8901 89.7735Z" fill="#7882B7"/>
<path d="M193.514 89.8323C194.37 90.5158 195.081 91.0871 194.942 92.2939C194.905 94.4138 193.706 95.5832 192.165 96.8113C192.288 94.4191 192.62 92.075 193.514 89.8323Z" fill="#2D59B0"/>
<path d="M96.4973 91.4662C97.7654 92.1657 96.9789 93.7249 96.9842 94.8623C96.0051 93.7143 95.1383 92.5342 94.3357 91.258C95.0527 91.3061 95.7964 91.3061 96.4973 91.4662Z" fill="#7882B7"/>
<path d="M178.131 91.5197C178.334 93.5274 178.489 95.4977 179.233 97.404C179.773 99.0113 180.389 100.597 180.945 102.199C179.929 101.932 178.901 101.585 177.858 101.462C176.13 102.637 175.461 105.382 174.648 107.197C174.862 103.87 175.504 100.608 175.686 97.2759L175.739 96.806C176.028 94.8089 176.97 93.1269 178.131 91.5197Z" fill="#F8FBFB"/>
<path d="M174.343 92.9935C173.979 94.4085 173.54 95.8502 173.385 97.3026C173.24 99.3104 173.727 101.163 174.375 103.043C174.99 101.153 175.434 99.2463 175.686 97.2759C175.504 100.608 174.862 103.87 174.648 107.197L174.471 107.726C174.289 106.284 174.166 104.837 174.07 103.385C173.337 103.817 172.604 104.239 171.871 104.666C170.603 103.897 169.34 103.112 168.029 102.413C168.371 102.338 168.714 102.269 169.056 102.194C169.099 101.318 168.634 99.8283 169.425 99.2356C170.319 99.1075 171.175 99.1929 172.069 99.2516C171.641 98.2424 171.223 97.2279 170.817 96.208C171.694 96.0158 172.566 95.8235 173.444 95.6313C173.176 94.9745 172.909 94.3124 172.636 93.6503C169.602 93.9012 166.766 94.8036 163.909 95.8075C164.481 96.8327 165.043 97.8793 165.562 98.9259C164.498 98.5948 163.454 98.2157 162.405 97.8366C163.048 96.7793 163.732 95.3216 164.931 94.8143C167.917 93.4367 171.073 92.9935 174.343 92.9935Z" fill="#7882B7"/>
<path d="M62.2698 94.0507C62.7834 93.8905 63.3025 93.7517 63.8268 93.6288C65.7851 94.0827 67.7381 94.8303 69.37 96.0317C70.7237 97.0676 71.8312 98.5574 72.8907 99.887C71.3925 99.7588 69.7231 99.7909 68.3052 99.2676C66.9301 98.221 66.4807 96.7152 64.7096 96.256C64.1104 96.1973 63.5111 96.1439 62.9119 96.0958C62.4196 95.9623 61.9327 95.8181 61.4458 95.6686C61.7133 95.124 61.9809 94.5847 62.2698 94.0507Z" fill="#F8FBFB"/>
<path d="M172.636 93.6502C172.909 94.3123 173.176 94.9745 173.444 95.6312C172.566 95.8235 171.694 96.0157 170.817 96.2079C171.223 97.2278 171.641 98.2424 172.069 99.2516C171.175 99.1928 170.319 99.1074 169.425 99.2356C168.634 99.8283 169.099 101.318 169.056 102.194C168.714 102.269 168.371 102.338 168.029 102.413C166.258 101.468 164.15 100.864 162.555 99.6467C161.903 99.07 162.25 98.5414 162.406 97.8365C163.454 98.2157 164.498 98.5948 165.562 98.9258C165.043 97.8793 164.482 96.8327 163.909 95.8075C166.766 94.8036 169.602 93.9012 172.636 93.6502Z" fill="#F8FBFB"/>
<path d="M79.6056 94.2375C80.3493 94.4138 81.0824 94.606 81.8154 94.7982C82.0829 95.8555 82.3505 96.9074 82.6233 97.9593C84.3997 97.5909 85.5394 97.6443 87.273 98.205C87.0911 98.819 86.9091 99.4278 86.7272 100.042C85.1649 99.5185 83.4366 99.1234 82.0241 98.269C80.9112 97.2492 80.3547 95.5404 79.6056 94.2375Z" fill="#7882B7"/>
<path d="M62.9119 96.0959C63.5111 96.1439 64.1104 96.1973 64.7097 96.2561C64.5331 96.7847 64.3619 97.3133 64.1853 97.8473C65.6139 99.4172 66.791 101.019 67.5133 103.027C66.7803 103.086 66.058 103.176 65.3303 103.272C65.6193 104.26 65.9135 105.248 66.1971 106.236C65.9242 105.937 65.6567 105.633 65.3945 105.318C63.1473 103.059 63.6716 99.1342 62.9119 96.0959Z" fill="#F8FBFB"/>
<path d="M13.2159 98.3492C14.1576 99.022 15.0565 99.7429 15.9554 100.469C15.0619 101.169 14.1897 101.889 13.2694 102.552L12.82 102.546C12.6113 100.934 12.0228 99.7215 13.2159 98.3492Z" fill="#F8FBFB"/>
<path d="M47.1491 99.1715C48.1122 99.3904 49.086 99.5773 50.0598 99.7429C48.6419 101.313 47.6093 103.235 46.3251 104.917C46.4696 102.984 46.6943 101.062 47.1491 99.1715Z" fill="#7882B7"/>
<path d="M87.6635 99.2836C88.2788 99.6788 88.9316 100.058 89.4881 100.538C89.7716 101.275 89.8893 102.082 90.0552 102.851C89.3329 102.568 88.6213 102.317 87.931 101.953C87.7652 101.083 87.7224 100.165 87.6635 99.2836Z" fill="#7882B7"/>
<path d="M15.9554 100.469C16.1533 100.624 16.3513 100.789 16.5439 100.955C17.2609 102.007 17.8655 103.123 18.4434 104.255C16.6349 103.918 14.9655 103.24 13.2694 102.551C14.1897 101.889 15.0618 101.168 15.9554 100.469Z" fill="#7882B7"/>
<path d="M125.963 101.729C126.172 101.905 126.38 102.092 126.584 102.279C126.172 104.314 125.685 106.615 124.486 108.345C123.876 109.232 122.951 109.584 121.929 109.771C118.44 110.358 114.967 110.433 111.452 110.364C110.179 112.142 108.568 113.541 106.893 114.924C106.562 113.946 106.225 113.039 106.171 112.003C107.193 111.656 108.279 111.474 109.339 111.277C109.167 110.305 108.996 109.328 108.825 108.356C112.431 109.317 116.054 109.701 119.74 108.884C121.602 108.484 124.063 107.865 124.818 105.883C125.31 104.522 125.615 103.128 125.963 101.729Z" fill="#7882B7"/>
<path d="M67.5134 103.027C68.0805 103.182 68.6423 103.347 69.2041 103.513C68.439 104.997 68.1661 106.241 66.1971 106.236C65.9135 105.248 65.6193 104.26 65.3303 103.272C66.058 103.176 66.7803 103.085 67.5134 103.027Z" fill="#F8FBFB"/>
<path d="M25.2654 103.571C25.7683 103.459 26.2766 103.369 26.7849 103.294C26.3034 104.938 25.6613 106.236 24.4788 107.485C24.634 106.204 24.741 104.768 25.2654 103.571Z" fill="#F8FBFB"/>
<path d="M61.0659 104.469C59.7764 104.858 58.0428 105.173 57.0744 106.167C55.9829 107.443 56.4109 109.766 56.1113 111.351C55.3729 111.907 54.474 112.003 53.5805 112.088C51.4616 112.232 49.3161 112.142 47.1919 112.115C49.4605 111.944 51.7827 111.965 54.0299 111.597C55.0572 111.506 55.3301 110.604 55.9401 109.894C54.3831 108.473 52.9545 106.978 51.6275 105.339C53.8801 105.056 56.122 104.821 58.3371 104.324C59.3216 104.1 60.1028 104.169 61.0659 104.469Z" fill="#7882B7"/>
<path d="M44.9179 105.286C45.4958 106.695 45.3032 108.489 44.9126 109.936C44.6558 108.698 44.3936 107.469 44.0779 106.247C43.7034 106.669 43.3449 107.101 42.9917 107.544C42.66 106.722 42.339 105.894 42.0233 105.067C43.1309 104.703 43.9655 104.324 44.9179 105.286Z" fill="#F8FBFB"/>
<path d="M61.0659 104.469L61.4619 104.719C61.7989 106.07 62.12 107.421 62.5266 108.746C61.1836 110.438 59.6106 112.014 57.8074 113.21C55.9347 113.824 54.1904 114.587 52.4301 115.458C50.3755 116.488 48.3048 116.558 46.0683 116.819C46.0201 115.847 45.9773 114.876 45.9292 113.904C46.3358 113.3 46.7692 112.708 47.1919 112.115C49.3161 112.142 51.4616 112.232 53.5805 112.088C54.474 112.003 55.3729 111.907 56.1113 111.351C56.4109 109.766 55.9829 107.443 57.0744 106.167C58.0428 105.173 59.7764 104.858 61.0659 104.469Z" fill="#F8FBFB"/>
<path d="M61.4619 104.719C62.104 105.179 62.8209 105.654 63.3292 106.268C63.6556 107.053 62.8477 108.051 62.5266 108.746C62.12 107.421 61.799 106.07 61.4619 104.719Z" fill="#7882B7"/>
<path d="M29.7437 105.28C30.5838 106.925 30.0808 107.795 29.3852 109.36C29.3531 107.971 29.4762 106.642 29.7437 105.28Z" fill="#F8FBFB"/>
<path d="M97.225 106.22C98.8141 106.423 100.403 107.24 101.837 107.945C101.249 110.46 101.864 112.291 102.838 114.561C101.2 113.06 101.077 111.218 100.371 109.269C99.7183 107.437 97.9045 106.588 96.0479 106.626C95.3416 107.518 94.9028 108.682 94.448 109.718C93.9932 108.703 93.5331 107.688 93.0676 106.679C94.3945 106.428 95.8766 106.054 97.225 106.22Z" fill="#7882B7"/>
<path d="M44.0779 106.247C44.3936 107.469 44.6558 108.698 44.9126 109.936L44.4739 110.636C43.7836 111.554 43.0346 112.425 42.2908 113.295C42.034 111.869 41.9805 110.502 42.3015 109.077C42.5049 108.559 42.7349 108.046 42.9918 107.544C43.3449 107.101 43.7034 106.668 44.0779 106.247Z" fill="#F8FBFB"/>
<path d="M47.9513 106.316C48.0155 107.352 48.0636 108.388 48.1064 109.43C47.6303 109.435 47.149 109.435 46.6729 109.425C46.9243 108.089 46.4376 106.925 47.9513 106.316Z" fill="#7882B7"/>
<path d="M39.6209 107.32C39.9365 108.404 40.3378 109.547 40.386 110.679C40.2576 111.693 39.8563 112.692 39.5192 113.658C38.7594 113.712 37.9996 113.77 37.2399 113.834C38.3314 111.752 38.8664 109.52 39.6209 107.32Z" fill="#F8FBFB"/>
<path d="M23.6227 108.516C23.6388 109.376 23.6602 110.235 23.6655 111.09C26.6458 111.8 29.1392 112.975 31.6807 114.646C32.0766 114.278 32.4779 113.909 32.8739 113.541C32.3763 113.156 31.8733 112.766 31.3757 112.382C32.4619 111.597 33.5534 110.807 34.6502 110.027C34.0242 111.998 33.3982 113.963 32.8471 115.949C33.5213 115.554 34.2008 115.159 34.875 114.753C35.3833 116.451 36.2554 118.192 36.4159 119.959C35.9183 120.91 35.0676 121.711 34.3613 122.517C33.639 121.951 32.922 121.385 32.1943 120.824C31.4881 121.006 30.0809 121.913 29.4655 121.449C26.9775 117.449 22.9004 115.137 20.5836 111.004C21.2631 111.17 21.9427 111.314 22.6222 111.453C22.2423 110.636 21.8678 109.814 21.4879 108.991C22.1995 108.831 22.9111 108.676 23.6227 108.516Z" fill="#7882B7"/>
<path d="M42.3015 109.077C41.9805 110.502 42.034 111.869 42.2908 113.295C43.0345 112.425 43.7836 111.554 44.4738 110.636C43.9334 111.618 43.3288 112.815 43.3288 113.952C43.4198 115.089 43.7729 116.227 44.0672 117.321C43.0078 117.134 41.943 116.963 40.8729 116.803C40.905 114.128 41.2421 111.554 42.3015 109.077Z" fill="#7882B7"/>
<path d="M66.7482 109.701C66.9676 110.155 67.1816 110.615 67.401 111.068C66.3362 111.223 65.2715 111.378 64.2067 111.512C65.0414 110.892 65.8922 110.294 66.7482 109.701Z" fill="#F8FBFB"/>
<path d="M18.1544 110.267C18.9677 110.508 19.7703 110.78 20.5836 111.004C22.9004 115.137 26.9775 117.449 29.4655 121.449C28.2563 120.621 27.1059 119.681 25.9395 118.79C25.367 119.158 24.7998 119.543 24.222 119.9C23.3124 119.724 22.4028 119.559 21.4932 119.398C21.7018 119.991 21.9052 120.584 22.1085 121.176C21.5146 120.504 20.8939 119.847 20.3 119.174C19.7168 119.542 19.1336 119.906 18.5504 120.269C18.9624 119.473 19.4332 118.699 19.8827 117.919C19.1924 117.828 18.4969 117.738 17.8066 117.642C17.6087 117.391 17.4107 117.14 17.2127 116.894C17.309 116.349 17.4053 115.81 17.4963 115.271C17.1753 114.571 16.6188 113.813 16.5493 113.033C16.8168 112.024 17.5231 111.09 18.1544 110.267Z" fill="#2D59B0"/>
<path d="M147.124 110.081C146.948 111.213 146.755 112.339 146.563 113.466C148.205 113.717 149.816 113.808 151.448 113.439C149.222 114.902 147.333 116.264 144.503 116.029C145.145 113.946 145.963 111.933 147.124 110.081Z" fill="#7882B7"/>
<path d="M57.8075 113.21C54.7309 115.725 51.146 116.947 47.5183 118.427C46.4001 118.87 45.7312 117.508 45.3995 116.68C44.9608 115.613 45.437 114.828 45.9292 113.904C45.9774 114.876 46.0202 115.847 46.0683 116.819C48.3049 116.558 50.3755 116.488 52.4301 115.458C54.1905 114.587 55.9348 113.824 57.8075 113.21Z" fill="#7882B7"/>
<path d="M57.3526 117.941C58.2408 117.973 59.129 118.031 60.0172 118.063C59.2628 120.525 58.8026 123.28 55.9989 124.177C54.6506 124.039 53.3932 123.27 52.0502 123.045C50.8891 123.094 49.589 123.686 48.7329 124.466C48.2085 125.422 48.1497 126.66 47.9303 127.718C45.469 127.985 43.0827 128.241 40.6214 127.83C39.257 127.702 37.395 127.173 36.1216 127.782C35.4314 128.465 35.2495 129.699 34.8642 130.574C34.3452 132.582 32.7882 133.25 31.2205 134.339C30.1557 134.99 29.0107 135.802 27.7854 136.085C25.3884 136.299 22.895 135.343 20.4712 135.434C18.3631 135.53 16.3085 136.518 14.2164 136.555C12.2314 136.539 10.8349 133.912 12.0548 132.294C13.0072 130.873 14.3502 129.485 15.9072 128.732C17.5391 128.257 19.4332 128.481 21.1186 128.433C20.209 128.818 19.278 129.4 18.2989 129.555C17.4214 129.533 16.5278 129.261 15.6771 129.047C16.2924 129.971 17.8869 131.13 17.0897 132.331C16.0731 133.399 14.6391 134.109 13.4299 134.953C16.148 136.363 18.0742 134.601 20.9207 134.755C23.3873 134.921 25.7308 135.305 28.2028 134.793C28.2135 133.955 28.2937 133.122 28.3098 132.283C30.2734 131.525 32.0391 130.623 33.7834 129.448C33.3768 128.7 32.9755 127.958 32.5635 127.216C36.4319 127.008 40.0382 126.762 43.4251 124.647C44.6718 124.941 45.7205 125.657 46.9244 124.872C49.4766 123.446 52.0128 122.047 54.6773 120.845C55.3141 121.283 55.9615 121.716 56.5928 122.154C56.8176 120.749 57.0262 119.329 57.3526 117.941Z" fill="#7882B7"/>
<path d="M24.2211 119.901C23.5204 120.333 22.8197 120.766 22.1083 121.177C21.9051 120.584 21.7018 119.991 21.4932 119.398C22.4025 119.559 23.3118 119.724 24.2211 119.901Z" fill="#7882B7"/>
<path d="M298.262 213.415C298.262 213.415 298.861 215.075 298.502 217.681C296.801 217.078 295.115 216.261 293.344 215.876C290.396 216.96 288.224 220.308 285.784 222.263C279.824 227.229 273.927 232.205 267.705 236.819C264.146 239.601 258.48 239.008 255.061 241.822C253.82 242.895 254.168 244.359 254.863 245.624C255.998 247.53 257.442 249.234 258.539 251.172C252.097 253.004 244.376 252.213 237.768 252.753C235.607 252.929 233.397 252.865 231.251 253.196C229.972 253.367 228.918 254.563 228.014 255.401C226.602 256.843 225.066 258.156 223.648 259.598C221.797 261.494 220.791 263.672 218.581 265.13C216.617 266.422 214.573 267.474 212.808 269.06C210.405 271.191 208.329 273.385 208.051 276.76C207.286 282.073 209.094 286.729 209.223 291.941C205.06 293.329 201.037 294.926 196.687 295.673C190.261 297.174 183.69 297.334 177.296 299C176.729 296.004 175.407 293.409 174.22 290.643C173.428 288.844 173.278 286.115 171.416 285.122C167.719 282.826 163.636 281.875 159.382 281.267C156.306 280.829 154.155 279.158 151.378 277.903C148.606 276.557 145.744 275.788 143.529 273.545C141.383 271.303 138.879 269.039 137.37 266.348C136.166 264.297 135.107 262.364 133.09 260.986C130.436 259.203 127.301 257.804 124.144 257.249C120.741 256.677 117.948 257.756 114.77 258.685C111.11 254.301 106.412 252.416 101.586 249.666C99.7826 248.646 98.049 247.824 95.9141 248.176C92.7092 248.481 90.2372 252.213 87.808 254.114C85.3842 252.87 83.442 251.343 81.5586 249.394C80.4617 249.581 79.3702 249.768 78.2787 249.955C77.4119 249.036 76.5505 248.112 75.689 247.189C74.0357 247.274 72.3824 247.375 70.729 247.472C70.1779 245.09 69.9158 242.607 69.1774 240.274C68.7707 239.008 67.8772 238.18 66.882 237.353C64.8809 235.751 62.8744 234.224 60.6058 233.012C58.1606 231.751 56.2932 229.381 54.1584 227.592C51.7185 225.525 50.1294 222.119 47.0047 221.27C44.0137 220.415 40.5358 221.467 37.4058 221.376C36.7423 217.772 35.4903 214.499 37.2452 210.969C37.272 212.395 37.2292 213.885 37.47 215.289C38.0639 215.994 38.813 216.042 39.6691 216.117C54.0514 216.159 68.6316 216.122 83.0193 216.042C86.5935 215.892 90.1409 215.54 93.7204 215.599C106.915 215.599 120.12 215.583 133.315 215.476C149.339 214.654 165.471 215.727 181.48 214.648C200.732 214.355 220.004 214.686 239.256 214.194C254.237 214.136 269.219 214.013 284.2 214.066C286.448 214.077 288.77 214.184 290.99 213.885C292.622 213.682 294.083 213.308 295.736 213.554C296.523 213.591 298.262 213.415 298.262 213.415Z" fill="#7978B7"/>
</svg>
